<?xml version="1.0" encoding="UTF-8" standalone="no"?>
<!-- Created with matplotlib (http://matplotlib.org/) -->

<svg
   xmlns:ns0="http://www.iki.fi/pav/software/textext/"
   xmlns:dc="http://purl.org/dc/elements/1.1/"
   xmlns:cc="http://creativecommons.org/ns#"
   xmlns:rdf="http://www.w3.org/1999/02/22-rdf-syntax-ns#"
   xmlns:svg="http://www.w3.org/2000/svg"
   xmlns="http://www.w3.org/2000/svg"
   xmlns:sodipodi="http://sodipodi.sourceforge.net/DTD/sodipodi-0.dtd"
   xmlns:inkscape="http://www.inkscape.org/namespaces/inkscape"
   sodipodi:docname="potential_dV-plas.svg"
   inkscape:version="0.91 r13725"
   id="svg2"
   width="1074.3689pt"
   viewBox="0 0 1074.3689 376.42743"
   version="1.1"
   height="376.42743pt">
  <sodipodi:namedview
     inkscape:guide-bbox="true"
     showguides="true"
     inkscape:snap-smooth-nodes="true"
     inkscape:object-nodes="true"
     inkscape:snap-intersection-paths="true"
     inkscape:object-paths="true"
     inkscape:snap-bbox-midpoints="true"
     inkscape:snap-bbox-edge-midpoints="true"
     inkscape:bbox-nodes="true"
     inkscape:bbox-paths="true"
     inkscape:snap-bbox="true"
     inkscape:current-layer="svg2"
     inkscape:window-maximized="0"
     inkscape:window-y="0"
     inkscape:window-x="0"
     inkscape:cy="172.80384"
     inkscape:cx="899.47163"
     inkscape:zoom="0.64037595"
     showgrid="false"
     id="namedview99"
     inkscape:window-height="806"
     inkscape:window-width="1346"
     inkscape:pageshadow="2"
     inkscape:pageopacity="0"
     guidetolerance="10"
     gridtolerance="10"
     objecttolerance="10"
     borderopacity="1"
     bordercolor="#666666"
     pagecolor="#ffffff"
     fit-margin-top="0"
     fit-margin-left="0"
     fit-margin-right="0"
     fit-margin-bottom="0">
    <sodipodi:guide
       position="603.42102,26.428112"
       orientation="0,1"
       id="guide6345" />
    <sodipodi:guide
       position="269.25445,219.0777"
       orientation="-0.86959627,0.49376344"
       id="guide4234" />
    <sodipodi:guide
       position="804.86733,192.34213"
       orientation="0.98301756,-0.18351151"
       id="guide4955" />
  </sodipodi:namedview>
  <metadata
     id="metadata101">
    <rdf:RDF>
      <cc:Work
         rdf:about="">
        <dc:format>image/svg+xml</dc:format>
        <dc:type
           rdf:resource="http://purl.org/dc/dcmitype/StillImage" />
        <dc:title />
      </cc:Work>
    </rdf:RDF>
  </metadata>
  <defs
     id="defs4"
     style="stroke-linecap:butt;stroke-linejoin:round">
    <marker
       inkscape:stockid="Arrow1Lend"
       orient="auto"
       refY="0"
       refX="0"
       id="marker5391"
       style="overflow:visible;stroke-linecap:butt;stroke-linejoin:round"
       inkscape:isstock="true">
      <path
         id="path5393"
         d="M 0,0 5,-5 -12.5,0 5,5 0,0 Z"
         style="fill:#000000;fill-opacity:1;fill-rule:evenodd;stroke:#000000;stroke-width:1pt;stroke-linecap:butt;stroke-linejoin:round;stroke-opacity:1"
         transform="matrix(-0.8,0,0,-0.8,-10,0)"
         inkscape:connector-curvature="0" />
    </marker>
    <marker
       inkscape:stockid="Arrow1Lend"
       orient="auto"
       refY="0"
       refX="0"
       id="Arrow1Lend"
       style="overflow:visible;stroke-linecap:butt;stroke-linejoin:round"
       inkscape:isstock="true">
      <path
         id="path5124"
         d="M 0,0 5,-5 -12.5,0 5,5 0,0 Z"
         style="fill:#000000;fill-opacity:1;fill-rule:evenodd;stroke:#000000;stroke-width:1pt;stroke-linecap:butt;stroke-linejoin:round;stroke-opacity:1"
         transform="matrix(-0.8,0,0,-0.8,-10,0)"
         inkscape:connector-curvature="0" />
    </marker>
    <style
       type="text/css"
       id="style6">
*{stroke-linecap:butt;stroke-linejoin:round;}
  </style>
    <clipPath
       id="pf12772923d"
       style="stroke-linecap:butt;stroke-linejoin:round">
      <rect
         height="349.40045"
         width="496.72641"
         x="56.333576"
         y="22.940001"
         id="rect97-9"
         style="stroke-linecap:butt;stroke-linejoin:round" />
    </clipPath>
    <defs
       id="defs35">
      <path
         inkscape:connector-curvature="0"
         d="m 13.90625,22.296875 c 3.1875,-1.28125 6.59375,-1.28125 8.5,-1.28125 2.59375,0 7.796875,0 7.796875,3.203125 0,2 -1.90625,2.78125 -7,2.78125 -2.5,0 -5.5,-0.296875 -9,-1.796875 C 11.09375,26.6875 9.90625,28.9375 9.90625,31.09375 c 0,6.078125 9.796875,9.625 18.6875,9.625 1.703125,0 5.3125,0 9.5,-3.046875 0.609375,-0.375 0.90625,-0.6875 1.609375,-0.6875 1.203125,0 2.5,1.28125 2.5,2.484375 C 42.203125,41.234375 36.40625,45 29.5,45 18.296875,45 7.703125,38.265625 7.703125,30.8125 c 0,-3.71875 2.390625,-6.03125 4.09375,-7.234375 C 6,20.328125 2.59375,15.015625 2.59375,10.1875 2.59375,3.421875 8.796875,-2 18.40625,-2 c 13.1875,0 18.5,8.625 18.5,10 C 36.90625,8.484375 36.5,8.875 36,8.875 35.5,8.875 35.296875,8.578125 34.90625,8 33.796875,6.171875 31.203125,2.28125 19.296875,2.28125 c -6.203125,0 -14.390625,1.546875 -14.390625,8.4375 0,3.3125 2.5,8.25 9,11.578125 z M 17,23.71875 C 19.703125,25 22.296875,25 23,25 25.796875,25 26.296875,24.734375 27.90625,24.140625 26.203125,23 26,23 22.40625,23 20.59375,23 19,23 17,23.71875 Z"
         id="CMMI12-34"
         style="stroke-linecap:butt;stroke-linejoin:round" />
      <path
         inkscape:connector-curvature="0"
         d="M 38.09375,23 C 38.5,23.40625 38.5,23.609375 38.5,24.625 38.5,34.96875 33.09375,44 21.703125,44 c -10.609375,0 -19,-10.109375 -19,-22.390625 0,-13 9.5,-22.609375 20.09375,-22.609375 C 34,-1 38.40625,9.484375 38.40625,11.5625 c 0,0.6875 -0.609375,0.6875 -0.8125,0.6875 -0.6875,0 -0.796875,-0.203125 -1.1875,-1.375 C 34.203125,4.140625 28.703125,0.796875 23.5,0.796875 19.203125,0.796875 14.90625,3.171875 12.203125,7.5 9.09375,12.546875 9.09375,18.375 9.09375,23 Z M 9.203125,24.5 c 0.703125,14.640625 8.390625,17.90625 12.390625,17.90625 6.8125,0 11.40625,-6.515625 11.5,-17.90625 z"
         id="CMR17-101"
         style="stroke-linecap:butt;stroke-linejoin:round" />
      <path
         inkscape:connector-curvature="0"
         d="m 41.09375,43.78125 -1.59375,0 -3,-9.84375 c -2.296875,5.265625 -6.5,9.84375 -13.203125,9.84375 -10.203125,0 -20,-9.046875 -20,-22.171875 C 3.296875,8.5625 12.5,-0.59375 22.5,-0.59375 c 7.703125,0 12,5.875 13.296875,8.0625 l 0,-19.796875 c 0,-3.78125 -0.390625,-4.28125 -6.796875,-4.28125 L 29,-19.1875 C 31.40625,-19 35.796875,-19 38.40625,-19 c 2.59375,0 7.09375,0 9.5,-0.1875 l 0,2.578125 c -6.40625,0 -6.8125,0.40625 -6.8125,4.28125 z M 36,13.84375 C 36,9.5625 32.40625,5.578125 32.09375,5.28125 29,1.796875 25.40625,1 23,1 15.5,1 9.703125,10.453125 9.703125,21.484375 9.703125,33.140625 16.296875,42 24,42 32,42 36,32.9375 36,27.765625 Z"
         id="CMR17-113"
         style="stroke-linecap:butt;stroke-linejoin:round" />
    </defs>
    <defs
       id="defs64">
      <path
         inkscape:connector-curvature="0"
         d="m 45.40625,33.515625 c -0.609375,5.609375 -4.109375,12.34375 -13.109375,12.34375 -14.09375,0 -28.5,-14.34375 -28.5,-30.296875 0,-6.125 4.203125,-17.65625 17.796875,-17.65625 23.609375,0 33.703125,34.390625 33.703125,48.09375 0,14.40625 -8.09375,25.5 -20.890625,25.5 -14.5,0 -18.8125,-12.703125 -18.8125,-15.40625 C 15.59375,55.203125 16.203125,53 19,53 c 3.5,0 5,3.203125 5,4.90625 C 24,61 20.90625,61 19.59375,61 23.703125,68.40625 31.296875,69.09375 34,69.09375 c 8.796875,0 14.40625,-6.984375 14.40625,-18.125 C 48.40625,44.578125 46.5,37.1875 45.5,33.515625 Z m -23.5,-32.921875 c -9.40625,0 -11,7.4375 -11,11.65625 0,4.40625 2.796875,14.75 4.296875,18.453125 1.296875,3.015625 7,13.15625 17.390625,13.15625 9.109375,0 11.203125,-7.9375 11.203125,-13.34375 0,-7.4375 -6.5,-29.921875 -21.890625,-29.921875 z"
         id="CMMI12-64"
         style="stroke-linecap:butt;stroke-linejoin:round" />
      <path
         inkscape:connector-curvature="0"
         d="m 61.90625,56.875 c 3.390625,5.375 6.5,7.75 11.59375,8.15625 1,0.09375 1.796875,0.09375 1.796875,1.875 0,0.40625 -0.203125,1 -1.09375,1 -1.796875,0 -6.109375,0 -7.90625,0 -2.890625,0 -5.890625,0 -8.703125,0 -0.796875,0 -1.796875,0 -1.796875,-1.875 0,-0.90625 0.90625,-1 1.296875,-1 3.703125,-0.296875 4.109375,-2.078125 4.109375,-3.28125 0,-1.484375 -1.40625,-3.78125 -1.5,-3.875 l -31.40625,-49.4375 -7,53.578125 C 21.296875,65 26.5,65 27.59375,65 29.09375,65 30,65 30,66.90625 c 0,1 -1.09375,1 -1.40625,1 -1.6875,0 -3.6875,0 -5.390625,0 l -5.609375,0 c -7.296875,0 -10.296875,0 -10.390625,0 -0.609375,0 -1.796875,0 -1.796875,-1.8125 C 5.40625,65 6.09375,65 7.703125,65 c 5.09375,0 5.390625,-0.90625 5.703125,-3.375 l 8,-61.25 C 21.703125,-1.703125 21.703125,-2 23.09375,-2 c 1.203125,0 1.703125,0.296875 2.703125,1.875 z"
         id="CMMI12-86"
         style="stroke-linecap:butt;stroke-linejoin:round" />
      <path
         inkscape:connector-curvature="0"
         d="m 42.90625,71.28125 c 0,0.109375 0.59375,1.625 0.59375,1.8125 0,1.203125 -1,1.90625 -1.796875,1.90625 -0.5,0 -1.40625,0 -2.203125,-2.203125 L 6,-21.296875 c 0,-0.109375 -0.59375,-1.59375 -0.59375,-1.796875 0,-1.203125 1,-1.90625 1.796875,-1.90625 0.59375,0 1.5,0.109375 2.203125,2.203125 z"
         id="CMMI12-61"
         style="stroke-linecap:butt;stroke-linejoin:round" />
    </defs>
    <marker
       inkscape:stockid="Arrow1Lend"
       orient="auto"
       refY="0"
       refX="0"
       id="marker5391-5"
       style="overflow:visible;stroke-linecap:butt;stroke-linejoin:round"
       inkscape:isstock="true">
      <path
         id="path5393-8"
         d="M 0,0 5,-5 -12.5,0 5,5 0,0 Z"
         style="fill:#000000;fill-opacity:1;fill-rule:evenodd;stroke:#000000;stroke-width:1pt;stroke-linecap:butt;stroke-linejoin:round;stroke-opacity:1"
         transform="matrix(-0.8,0,0,-0.8,-10,0)"
         inkscape:connector-curvature="0" />
    </marker>
    <marker
       inkscape:stockid="Arrow1Lend"
       orient="auto"
       refY="0"
       refX="0"
       id="Arrow1Lend-2"
       style="overflow:visible;stroke-linecap:butt;stroke-linejoin:round"
       inkscape:isstock="true">
      <path
         id="path5124-0"
         d="M 0,0 5,-5 -12.5,0 5,5 0,0 Z"
         style="fill:#000000;fill-opacity:1;fill-rule:evenodd;stroke:#000000;stroke-width:1pt;stroke-linecap:butt;stroke-linejoin:round;stroke-opacity:1"
         transform="matrix(-0.8,0,0,-0.8,-10,0)"
         inkscape:connector-curvature="0" />
    </marker>
    <marker
       inkscape:stockid="Arrow1Lend"
       orient="auto"
       refY="0"
       refX="0"
       id="marker5391-6"
       style="overflow:visible;stroke-linecap:butt;stroke-linejoin:round"
       inkscape:isstock="true">
      <path
         id="path5393-5"
         d="M 0,0 5,-5 -12.5,0 5,5 0,0 Z"
         style="fill:#000000;fill-opacity:1;fill-rule:evenodd;stroke:#000000;stroke-width:1pt;stroke-linecap:butt;stroke-linejoin:round;stroke-opacity:1"
         transform="matrix(-0.8,0,0,-0.8,-10,0)"
         inkscape:connector-curvature="0" />
    </marker>
    <marker
       inkscape:stockid="Arrow1Lend"
       orient="auto"
       refY="0"
       refX="0"
       id="Arrow1Lend-7"
       style="overflow:visible;stroke-linecap:butt;stroke-linejoin:round"
       inkscape:isstock="true">
      <path
         id="path5124-7"
         d="M 0,0 5,-5 -12.5,0 5,5 0,0 Z"
         style="fill:#000000;fill-opacity:1;fill-rule:evenodd;stroke:#000000;stroke-width:1pt;stroke-linecap:butt;stroke-linejoin:round;stroke-opacity:1"
         transform="matrix(-0.8,0,0,-0.8,-10,0)"
         inkscape:connector-curvature="0" />
    </marker>
  </defs>
  <g
     id="line2d_3"
     style="stroke-linecap:butt;stroke-linejoin:round"
     transform="translate(520.90904,-22.53993)">
    <path
       clip-path="url(#p21ebcbdd0c)"
       d="m 78.91205,197.63906 4.972236,-26.26837 2.712129,-13.20441 2.260108,-9.95187 1.808086,-7.09432 1.808086,-6.2012 1.356064,-4.00527 1.356065,-3.41182 1.356064,-2.78804 1.356065,-2.13944 0.904043,-1.05634 0.904043,-0.75531 0.904041,-0.45132 0.90405,-0.14552 0.90404,0.16084 0.90404,0.46656 0.90404,0.77045 0.90405,1.07128 0.90404,1.36789 1.35606,2.5958 1.35607,3.22762 1.35606,3.83074 1.35607,4.39979 1.80808,6.68324 1.80809,7.51917 2.26011,10.39234 2.71213,13.58613 4.52021,24.0728 1.35607,6.88058 0.90404,3.89361 0.90404,3.04709 0.90404,2.00873 0.45203,0.57265 0.45202,0.27125 0.45202,-0.0345 0.45202,-0.3396 0.45202,-0.6394 0.45202,-0.92907 0.90405,-2.66413 0.90404,-3.59206 1.35606,-6.62072 2.71213,-14.13083 0.90405,-3.88444 0.90404,-3.03517 0.90404,-1.99481 0.45202,-0.56521 0.45202,-0.26363 0.45203,0.0421 0.45202,0.34719 0.45202,0.64677 0.45202,0.93615 0.90404,2.6769 0.90405,3.60234 1.35606,6.63009 5.87628,30.65293 2.26011,10.22158 1.80808,7.04861 1.35607,4.49569 1.35606,3.73795 1.35607,2.92113 0.90404,1.47029 0.90404,1.07613 0.90405,0.6744 0.90404,0.26795 0.90404,-0.1404 0.90405,-0.54777 0.90404,-0.95127 0.90404,-1.34809 0.90404,-1.73544 0.90405,-2.11059 1.35606,-3.83616 1.35607,-4.58565 1.80808,-7.15328 1.80809,-8.15493 2.26011,-11.25139 4.06819,-21.69802 3.16415,-16.50593 2.26011,-10.71928 1.80808,-7.56692 1.35607,-4.9452 1.35606,-4.23174 1.35607,-3.45139 0.90404,-1.83994 0.90404,-1.45568 0.90405,-1.06118 0.90404,-0.65923 0.90404,-0.25265 0.90404,0.15572 0.90405,0.56298 0.90404,0.96629 0.90404,1.36281 0.90405,1.74974 0.90404,2.12439 1.35606,3.85568 1.35607,4.60351 1.80808,7.17401 1.80809,8.17159 2.26011,11.26584 4.06819,21.71095 5.87628,31.03857 3.61617,17.89581 2.71213,12.44346 2.71213,11.38504 2.26011,8.54866 2.26011,7.59452 1.80808,5.33223 1.80809,4.63052 1.35606,2.99263 1.35607,2.56767 1.35606,2.13256 1.35607,1.68902 1.35606,1.2388 0.90404,0.57325 0.90405,0.36993 0.90404,0.16596 0.90404,-0.0383 0.90405,-0.2425 0.90404,-0.44627 0.90404,-0.64925 0.90404,-0.8511 1.35607,-1.65173 1.35606,-2.0959 1.35607,-2.53178 1.35606,-2.95764 1.80809,-4.58553 1.80808,-5.28942 1.80809,-5.95613 2.26011,-8.31853 2.26011,-9.20322 2.71212,-12.06876 3.16415,-15.2506 3.61618,-18.5691 6.78032,-36.32021 4.97224,-26.16063 3.61617,-17.87162 2.71213,-12.41933 2.71213,-11.3562 2.2601,-8.52136 2.26011,-7.56454 1.80809,-5.306565 1.80808,-4.603544 1.35607,-2.971648 1.35606,-2.546144 1.35607,-2.110571 1.35606,-1.666653 1.35607,-1.216143 0.90404,-0.558031 0.90404,-0.354649 0.90405,-0.150643 0.90404,0.05363 0.90404,0.257802 0.90404,0.461525 0.90405,0.664436 0.90404,0.866179 1.35606,1.67411 1.35607,2.117904 1.35606,2.553323 1.35607,2.978644 1.80808,4.612543 1.80809,5.315115 1.80809,5.98035 2.2601,8.34645 2.26011,9.22824 2.71213,12.09458 3.16415,15.27443 3.61617,18.58739 6.78033,36.33541 6.78032,35.83806 4.06819,20.4293 3.61617,17.09309 3.16415,13.92144 2.71213,11.03547 2.71213,10.10836 2.26011,7.65343 2.26011,6.90502 2.2601,6.11602 1.80809,4.3004 1.80809,3.75613 1.80808,3.19773 1.35607,2.02453 1.35606,1.69933 1.35607,1.37053 1.35606,1.03883 1.35606,0.70492 1.35607,0.36953 0.90404,0.0596 0.90404,-0.0899 1.35607,-0.41487 1.35606,-0.7501 1.35607,-1.08375 1.35606,-1.4151 1.35607,-1.74346 1.35606,-2.06812 1.80809,-3.25485 1.80808,-3.81192 1.80809,-4.35463 1.80808,-4.88096 2.26011,-6.81318 2.26011,-7.56664 2.26011,-8.27563 2.71213,-10.79782 3.16415,-13.67661 3.16415,-14.6883 3.61617,-17.8079 4.52021,-23.3975 7.68437,-41.19332 6.78032,-35.91747 4.52022,-22.73455 3.61617,-17.06364 3.16415,-13.890431 2.71213,-11.00529 2.71213,-10.075123 2.2601,-7.623603 2.26011,-6.873443 2.26011,-6.082866 1.80809,-4.272879 1.80808,-3.727843 1.80809,-3.168773 1.35606,-2.002436 1.35607,-1.676967 1.35606,-1.347946 1.35607,-1.016072 1.35606,-0.682045 1.35607,-0.346574 0.90404,-0.04429 0.90404,0.105195 1.35607,0.437813 1.35606,0.772962 1.35607,1.106473 1.35606,1.437642 1.35606,1.765766 1.35607,2.090151 1.80808,3.283721 1.80809,3.840099 1.80809,4.382025 1.80808,4.907455 2.26011,6.844884 2.26011,7.596619 2.2601,8.303686 2.71213,10.828727 3.16415,13.708543 3.16415,14.71542 3.61618,17.83263 4.52021,23.41848 1.35607,7.19512 0,0"
       style="fill:none;stroke:#000000;stroke-width:2;stroke-linecap:square;stroke-linejoin:round"
       id="path86"
       inkscape:connector-curvature="0" />
  </g>
  <defs
     id="defs94">
    <clipPath
       id="p21ebcbdd0c"
       style="stroke-linecap:butt;stroke-linejoin:round">
      <rect
         height="349.40045"
         width="496.72641"
         x="56.333576"
         y="22.940001"
         id="rect97"
         style="stroke-linecap:butt;stroke-linejoin:round" />
    </clipPath>
  </defs>
  <path
     style="fill:none;fill-rule:evenodd;stroke:#000000;stroke-width:0.80000001px;stroke-linecap:butt;stroke-linejoin:miter;stroke-opacity:1;marker-end:url(#Arrow1Lend)"
     d="m 599.82109,175.09913 474.14791,0"
     id="path5107"
     inkscape:connector-curvature="0"
     sodipodi:nodetypes="cc" />
  <path
     style="fill:none;fill-rule:evenodd;stroke:#000000;stroke-width:0.80000001px;stroke-linecap:butt;stroke-linejoin:miter;stroke-opacity:1;marker-end:url(#marker5391)"
     d="m 599.82109,349.99931 0,-349.40046275"
     id="path5109"
     inkscape:connector-curvature="0" />
  <path
     id="path86-0"
     style="fill:none;stroke:#000000;stroke-width:2;stroke-linecap:square;stroke-linejoin:round"
     d="m 78.91205,193.90262 44.75013,-78.81213 0.45202,98.61468 22.14905,-39.00803 0.45202,78.73252 67.35121,-118.61624 0.45202,178.14329 135.15443,-238.028565 0.45202,281.530475 180.35658,-317.636781 0,0"
     clip-path="url(#pf12772923d)"
     inkscape:connector-curvature="0"
     transform="translate(-28.21446,-18.80349)" />
  <path
     style="fill:none;fill-rule:evenodd;stroke:#000000;stroke-width:0.80000001px;stroke-linecap:butt;stroke-linejoin:miter;stroke-opacity:1;marker-end:url(#Arrow1Lend-7)"
     d="m 50.69759,175.09913 474.14793,0"
     id="path5107-2"
     inkscape:connector-curvature="0"
     sodipodi:nodetypes="cc" />
  <path
     style="fill:none;fill-rule:evenodd;stroke:#000000;stroke-width:0.80000001px;stroke-linecap:butt;stroke-linejoin:miter;stroke-opacity:1;marker-end:url(#marker5391-6)"
     d="m 50.69759,349.99931 0,-349.400461"
     id="path5109-0"
     inkscape:connector-curvature="0" />
  <flowRoot
     xml:space="preserve"
     id="flowRoot6515"
     style="font-style:normal;font-weight:normal;font-size:32px;line-height:125%;font-family:sans-serif;letter-spacing:0px;word-spacing:0px;fill:#000000;fill-opacity:1;stroke:none;stroke-width:1px;stroke-linecap:butt;stroke-linejoin:miter;stroke-opacity:1"
     transform="translate(321.07261,9.741807)"><flowRegion
       id="flowRegion6517"
       style="stroke-linecap:butt;stroke-linejoin:round"><rect
         id="rect6519"
         width="839.93323"
         height="307.01007"
         x="-453.75702"
         y="346.99637"
         style="stroke-linecap:butt;stroke-linejoin:round" /></flowRegion><flowPara
       id="flowPara6521"
       style="font-style:normal;font-variant:normal;font-weight:500;font-stretch:normal;font-size:18px;font-family:'CMU Serif';-inkscape-font-specification:'CMU Serif Medium';text-align:center;text-anchor:middle;stroke-linecap:butt;stroke-linejoin:round">(a) multi-parabolic potential</flowPara></flowRoot>  <flowRoot
     xml:space="preserve"
     id="flowRoot6515-3"
     style="font-style:normal;font-weight:normal;font-size:32px;line-height:125%;font-family:sans-serif;letter-spacing:0px;word-spacing:0px;fill:#000000;fill-opacity:1;stroke:none;stroke-width:1px;stroke-linecap:butt;stroke-linejoin:miter;stroke-opacity:1"
     transform="translate(870.1961,9.741807)"><flowRegion
       id="flowRegion6517-2"
       style="stroke-linecap:butt;stroke-linejoin:round"><rect
         id="rect6519-4"
         width="839.93323"
         height="307.01007"
         x="-453.75702"
         y="346.99637"
         style="stroke-linecap:butt;stroke-linejoin:round" /></flowRegion><flowPara
       id="flowPara6521-5"
       style="font-style:normal;font-variant:normal;font-weight:500;font-stretch:normal;font-size:18px;font-family:'CMU Serif';-inkscape-font-specification:'CMU Serif Medium';text-align:center;text-anchor:middle;stroke-linecap:butt;stroke-linejoin:round">(b) smooth multi-parabolic potential</flowPara></flowRoot>  <path
     style="fill:none;fill-rule:evenodd;stroke:#000000;stroke-width:0.80000001px;stroke-linecap:butt;stroke-linejoin:miter;stroke-opacity:1"
     d="m 238.08914,212.94129 0,35.49882"
     id="path4236"
     inkscape:connector-curvature="0" />
  <path
     style="fill:none;fill-rule:evenodd;stroke:#000000;stroke-width:0.80000001px;stroke-linecap:butt;stroke-linejoin:miter;stroke-opacity:1"
     d="m 217.53264,248.44011 20.1565,-35.49882"
     id="path4288"
     inkscape:connector-curvature="0" />
  <path
     style="fill:none;fill-rule:evenodd;stroke:#000000;stroke-width:0.80000001px;stroke-linecap:butt;stroke-linejoin:miter;stroke-opacity:1"
     d="m 238.08914,248.44011 -20.5565,0"
     id="path4290"
     inkscape:connector-curvature="0" />
  <g
     style="font-style:normal;font-variant:normal;font-weight:normal;font-stretch:normal;letter-spacing:normal;word-spacing:normal;text-anchor:start;fill:none;fill-opacity:1;fill-rule:evenodd;stroke:#000000;stroke-linecap:butt;stroke-linejoin:miter;stroke-miterlimit:10.43299961;stroke-dasharray:none;stroke-dashoffset:0;stroke-opacity:1"
     id="content-7"
     transform="matrix(1.6,0,0,-1.6,-133.73311,1392.4241)"
     xml:space="preserve"
     stroke-miterlimit="10.433"
     font-style="normal"
     font-variant="normal"
     font-weight="normal"
     font-stretch="normal"
     font-size-adjust="none"
     letter-spacing="normal"
     word-spacing="normal"
     ns0:text="$1$"
     ns0:preamble="/data/settings/inkscape/textext_preamble.tex"><path
       style="fill:#000000;stroke-width:0;stroke-linecap:butt;stroke-linejoin:round"
       inkscape:connector-curvature="0"
       d="m 226.36,713.48 0,0.01 0,0.01 0,0.02 0,0.01 0,0 0,0.01 0,0.01 0,0.01 0,0.01 0,0.01 0,0.01 0,0.01 0,0 0,0.01 0,0.01 0,0 0,0.01 0,0.01 0,0.01 -0.01,0.01 0,0.01 0,0.01 -0.01,0.01 0,0 0,0.01 -0.01,0.01 -0.01,0 0,0.01 -0.01,0 -0.01,0.01 -0.01,0 0,0 -0.01,0 0,0 -0.01,0 0,0 -0.01,0.01 -0.01,0 0,0 -0.01,0 -0.01,0 0,0 -0.01,0 -0.01,0 -0.01,0 -0.01,0 -0.01,0 -0.01,0 -0.01,0 -0.01,0 -0.01,0 -0.01,0 c -0.61,-0.64 -1.49,-0.64 -1.81,-0.64 l 0,-0.3 c 0.2,0 0.79,0 1.31,0.25 l 0,-5.14 c 0,-0.36 -0.03,-0.48 -0.93,-0.48 l -0.32,0 0,-0.31 c 0.35,0.04 1.22,0.04 1.61,0.04 0.4,0 1.27,0 1.62,-0.04 l 0,0.31 -0.32,0 c -0.9,0 -0.93,0.11 -0.93,0.48 z"
       id="path4846" /></g>  <g
     style="font-style:normal;font-variant:normal;font-weight:normal;font-stretch:normal;letter-spacing:normal;word-spacing:normal;text-anchor:start;fill:none;fill-opacity:1;fill-rule:evenodd;stroke:#000000;stroke-linecap:butt;stroke-linejoin:miter;stroke-miterlimit:10.43299961;stroke-dasharray:none;stroke-dashoffset:0;stroke-opacity:1"
     id="content-7-7"
     transform="matrix(1.6,0,0,-1.6,445.53317,1337.1311)"
     xml:space="preserve"
     stroke-miterlimit="10.433"
     font-style="normal"
     font-variant="normal"
     font-weight="normal"
     font-stretch="normal"
     font-size-adjust="none"
     letter-spacing="normal"
     word-spacing="normal"
     ns0:text="$1$"
     ns0:preamble="/data/settings/inkscape/textext_preamble.tex"><path
       style="fill:#000000;stroke-width:0;stroke-linecap:butt;stroke-linejoin:round"
       inkscape:connector-curvature="0"
       d="m 226.36,713.48 0,0.01 0,0.01 0,0.02 0,0.01 0,0 0,0.01 0,0.01 0,0.01 0,0.01 0,0.01 0,0.01 0,0.01 0,0 0,0.01 0,0.01 0,0 0,0.01 0,0.01 0,0.01 -0.01,0.01 0,0.01 0,0.01 -0.01,0.01 0,0 0,0.01 -0.01,0.01 -0.01,0 0,0.01 -0.01,0 -0.01,0.01 -0.01,0 0,0 -0.01,0 0,0 -0.01,0 0,0 -0.01,0.01 -0.01,0 0,0 -0.01,0 -0.01,0 0,0 -0.01,0 -0.01,0 -0.01,0 -0.01,0 -0.01,0 -0.01,0 -0.01,0 -0.01,0 -0.01,0 -0.01,0 c -0.61,-0.64 -1.49,-0.64 -1.81,-0.64 l 0,-0.3 c 0.2,0 0.79,0 1.31,0.25 l 0,-5.14 c 0,-0.36 -0.03,-0.48 -0.93,-0.48 l -0.32,0 0,-0.31 c 0.35,0.04 1.22,0.04 1.61,0.04 0.4,0 1.27,0 1.62,-0.04 l 0,0.31 -0.32,0 c -0.9,0 -0.93,0.11 -0.93,0.48 z"
       id="path4846-4" /></g>  <path
     style="fill:none;fill-rule:evenodd;stroke:#000000;stroke-width:0.80000001px;stroke-linecap:butt;stroke-linejoin:miter;stroke-opacity:1"
     d="m 803.9708,191.79431 6.29432,0 0,-33.71695 z"
     id="path4957"
     inkscape:connector-curvature="0" />
  <g
     id="g4328"
     transform="matrix(2,0,0,-2,-771.85999,1434.56)"
     xml:space="preserve"
     stroke="black"
     stroke-linecap="butt"
     stroke-linejoin="miter"
     stroke-miterlimit="10.433"
     stroke-dasharray="none"
     stroke-dashoffset="0"
     stroke-opacity="1"
     fill="none"
     fill-rule="evenodd"
     fill-opacity="1"
     font-style="normal"
     font-variant="normal"
     font-weight="normal"
     font-stretch="normal"
     font-size-adjust="none"
     letter-spacing="normal"
     word-spacing="normal"
     text-anchor="start"
     ns0:text="\\begin{equation*}\n\\frac{\\partial V}{\\partial \\varepsilon_\\mathrm{d}}\n\\end{equation*}"
     ns0:preamble="/data/settings/inkscape/textext_preamble.tex"
     style="font-style:normal;font-variant:normal;font-weight:normal;font-stretch:normal;letter-spacing:normal;word-spacing:normal;text-anchor:start;fill:none;fill-opacity:1;fill-rule:evenodd;stroke:#000000;stroke-linecap:butt;stroke-linejoin:miter;stroke-miterlimit:10.43299961;stroke-dasharray:none;stroke-dashoffset:0;stroke-opacity:1"><path
       d="M392.97,713.54 L392.96,713.59 L392.95,713.65 L392.93,713.71 L392.92,713.76 L392.9,713.82 L392.88,713.87 L392.86,713.93 L392.84,713.98 L392.81,714.03 L392.78,714.08 L392.76,714.13 L392.73,714.18 L392.69,714.22 L392.66,714.27 L392.62,714.31 L392.58,714.35 L392.54,714.39 L392.5,714.43 L392.45,714.47 L392.41,714.5 L392.36,714.53 L392.31,714.56 L392.25,714.59 L392.2,714.61 L392.14,714.63 L392.08,714.65 L392.02,714.67 L391.96,714.68 L391.89,714.69 L391.83,714.7 L391.76,714.71 L391.68,714.71 V714.49 C392.77,714.49,392.79,713.38,392.79,713.18 C392.79,712.46,392.15,710.23,390.62,710.23 H390.62 C389.52,710.23,389.52,711.25,389.52,711.35 C389.52,711.62,389.77,713.01,390.18,713.61 C390.58,714.17,391.07,714.49,391.68,714.49 V714.71 C391.08,714.71,390.43,714.55,389.65,713.78 C388.82,712.95,388.75,712.03,388.75,711.72 C388.75,711.1,389.19,709.95,390.59,709.95 C392.96,709.95,394,713.29,394,714.71 C394,716.29,393.07,717.28,391.84,717.28 C390.4,717.28,389.94,715.99,389.94,715.71 C389.94,715.57,390.02,715.36,390.32,715.36 C390.65,715.36,390.86,715.66,390.86,715.89 C390.86,716.24,390.55,716.24,390.39,716.24 C390.83,716.97,391.54,717.03,391.82,717.03 C392.55,717.03,393.25,716.52,393.25,715.23 C393.25,714.85,393.19,714.34,392.98,713.54 Z "
       stroke-width="0"
       fill="black"
       id="path4330" /><path
       d="M400.46,715.82 L400.51,715.89 L400.55,715.96 L400.6,716.02 L400.64,716.08 L400.69,716.13 L400.73,716.18 L400.77,716.23 L400.82,716.27 L400.86,716.31 L400.9,716.35 L400.94,716.39 L400.98,716.42 L401.03,716.45 L401.07,716.47 L401.11,716.5 L401.15,716.52 L401.19,716.54 L401.23,716.55 L401.26,716.57 L401.3,716.58 L401.34,716.59 L401.38,716.6 L401.42,716.61 L401.45,716.62 L401.49,716.62 L401.53,716.63 L401.6,716.64 L401.67,716.64 L401.74,716.65 C401.86,716.66,401.87,716.83,401.87,716.84 C401.87,716.91,401.82,716.95,401.74,716.95 C401.48,716.95,401.19,716.92,400.92,716.92 C400.59,716.92,400.25,716.95,399.93,716.95 C399.88,716.95,399.75,716.95,399.75,716.77 C399.75,716.66,399.83,716.65,399.9,716.65 C400.17,716.63,400.36,716.53,400.36,716.32 C400.36,716.17,400.21,715.95,400.21,715.94 L397.15,711.09 L396.48,716.35 C396.48,716.52,396.7,716.65,397.16,716.65 C397.3,716.65,397.41,716.65,397.41,716.84 C397.41,716.93,397.33,716.95,397.27,716.95 C396.87,716.95,396.45,716.92,396.04,716.92 C395.86,716.92,395.67,716.93,395.49,716.93 C395.31,716.93,395.12,716.95,394.95,716.95 C394.88,716.95,394.76,716.95,394.76,716.77 C394.76,716.65,394.85,716.65,395.01,716.65 C395.57,716.65,395.58,716.56,395.61,716.31 L396.39,710.18 C396.42,709.98,396.46,709.95,396.59,709.95 C396.75,709.95,396.79,710,396.87,710.13 Z "
       stroke-width="0"
       fill="black"
       id="path4332" /><line
       x1="387.59"
       y1="705.92"
       x2="402.98"
       y2="705.92"
       stroke-width="0.398"
       id="line4334" /><path
       d="M392.21,699.96 L392.2,700.02 L392.19,700.08 L392.17,700.14 L392.16,700.19 L392.14,700.25 L392.12,700.3 L392.1,700.35 L392.08,700.41 L392.05,700.46 L392.02,700.51 L392,700.56 L391.97,700.61 L391.93,700.65 L391.9,700.7 L391.86,700.74 L391.82,700.78 L391.78,700.82 L391.74,700.86 L391.69,700.89 L391.65,700.93 L391.6,700.96 L391.55,700.99 L391.49,701.01 L391.44,701.04 L391.38,701.06 L391.32,701.08 L391.26,701.1 L391.2,701.11 L391.13,701.12 L391.07,701.13 L391,701.13 L390.92,701.14 V700.92 C392.01,700.92,392.03,699.8,392.03,699.61 C392.03,698.89,391.39,696.66,389.86,696.66 H389.86 C388.76,696.66,388.76,697.68,388.76,697.78 C388.76,698.05,389.01,699.44,389.42,700.03 C389.82,700.6,390.31,700.92,390.92,700.92 V701.14 C390.32,701.14,389.67,700.98,388.89,700.2 C388.06,699.38,387.99,698.45,387.99,698.15 C387.99,697.53,388.43,696.38,389.83,696.38 C392.2,696.38,393.24,699.72,393.24,701.14 C393.24,702.72,392.31,703.71,391.08,703.71 C389.64,703.71,389.18,702.42,389.18,702.14 C389.18,702,389.26,701.79,389.56,701.79 C389.89,701.79,390.1,702.09,390.1,702.32 C390.1,702.67,389.79,702.67,389.63,702.67 C390.07,703.4,390.77,703.46,391.06,703.46 C391.79,703.46,392.49,702.94,392.49,701.66 C392.49,701.28,392.43,700.77,392.22,699.96 Z "
       stroke-width="0"
       fill="black"
       id="path4336" /><path
       d="M394.85,698.85 L394.88,698.84 L394.91,698.83 L394.94,698.82 L394.97,698.81 L395,698.8 L395.03,698.79 L395.06,698.78 L395.09,698.77 L395.11,698.76 L395.14,698.76 L395.2,698.75 L395.26,698.74 L395.31,698.73 L395.36,698.72 L395.41,698.72 L395.47,698.72 L395.52,698.71 L395.56,698.71 L395.61,698.71 L395.66,698.71 L395.7,698.71 V698.93 C395.48,698.93,395.37,698.93,395.18,698.98 H395.18 C395.41,699.06,395.61,699.07,395.78,699.07 C396.03,699.07,396.07,699.06,396.25,699.01 C396.1,698.94,396.08,698.93,395.7,698.93 V698.71 C395.96,698.71,396.51,698.71,396.51,699.02 C396.51,699.26,396.16,699.29,395.78,699.29 C395.58,699.29,395.23,699.27,394.86,699.1 C394.63,699.22,394.46,699.41,394.46,699.67 C394.46,700.28,395.43,700.64,396.33,700.64 C396.49,700.64,396.85,700.64,397.25,700.36 C397.36,700.28,397.38,700.26,397.45,700.26 C397.58,700.26,397.72,700.39,397.72,700.53 C397.72,700.72,397.11,701.1,396.43,701.1 C395.29,701.1,394.21,700.43,394.21,699.67 C394.21,699.25,394.57,699,394.61,698.97 C394.02,698.64,393.7,698.09,393.7,697.63 C393.7,696.98,394.27,696.38,395.33,696.38 C396.64,696.38,397.2,697.25,397.2,697.4 C397.2,697.46,397.15,697.5,397.09,697.5 C397.04,697.5,397.01,697.46,396.99,697.43 C396.85,697.2,396.61,696.83,395.42,696.83 C394.81,696.83,393.96,696.98,393.96,697.69 C393.96,698.03,394.24,698.55,394.85,698.85 Z "
       stroke-width="0"
       fill="black"
       id="path4338" /><path
       d="M400.57,699.85 V699.6 C401.04,699.6,401.1,699.55,401.1,699.21 V697.77 C400.84,698.02,400.5,698.17,400.12,698.17 L400.15,697.97 C400.49,697.97,400.79,697.82,400.98,697.57 C401.07,697.46,401.07,697.45,401.07,697.32 V695.83 C400.89,695.5,400.53,695.23,400.08,695.23 C399.68,695.23,399.4,695.46,399.27,695.66 C399.12,695.87,399.04,696.14,399.04,696.59 C399.04,696.75,399.04,697.27,399.33,697.6 C399.61,697.91,399.95,697.97,400.15,697.97 L400.12,698.17 C399.19,698.17,398.4,697.47,398.4,696.6 C398.4,695.73,399.15,695.03,400.03,695.03 C400.61,695.03,400.95,695.34,401.07,695.46 V695.03 L402.14,695.1 V695.35 C401.68,695.35,401.62,695.4,401.62,695.74 V699.93 Z "
       stroke-width="0"
       fill="black"
       id="path4340" /></g>  <g
     style="font-style:normal;font-variant:normal;font-weight:normal;font-stretch:normal;letter-spacing:normal;word-spacing:normal;text-anchor:start;fill:none;fill-opacity:1;fill-rule:evenodd;stroke:#000000;stroke-linecap:butt;stroke-linejoin:miter;stroke-miterlimit:10.43299961;stroke-dasharray:none;stroke-dashoffset:0;stroke-opacity:1"
     ns0:preamble="/data/settings/inkscape/textext_preamble.tex"
     ns0:text="\\begin{equation*}\n\\varepsilon_\\mathrm{d}\n\\end{equation*}"
     text-anchor="start"
     word-spacing="normal"
     letter-spacing="normal"
     font-size-adjust="none"
     font-stretch="normal"
     font-weight="normal"
     font-variant="normal"
     font-style="normal"
     fill-opacity="1"
     fill-rule="evenodd"
     fill="none"
     stroke-opacity="1"
     stroke-dashoffset="0"
     stroke-dasharray="none"
     stroke-miterlimit="10.433"
     stroke-linejoin="miter"
     stroke-linecap="butt"
     stroke="black"
     xml:space="preserve"
     transform="matrix(2,0,0,-2,-277.35448,1611.7387)"
     id="g4506"><path
       id="path4508"
       fill="black"
       stroke-width="0"
       d="M391.92,709.38 L391.95,709.37 L391.98,709.36 L392.01,709.34 L392.04,709.33 L392.07,709.32 L392.1,709.32 L392.13,709.31 L392.16,709.3 L392.19,709.29 L392.22,709.29 L392.27,709.27 L392.33,709.27 L392.38,709.26 L392.44,709.25 L392.49,709.25 L392.54,709.25 L392.59,709.24 L392.64,709.24 L392.69,709.24 L392.73,709.24 L392.78,709.24 V709.46 C392.56,709.46,392.44,709.46,392.25,709.51 H392.25 C392.48,709.59,392.69,709.6,392.86,709.6 C393.11,709.6,393.15,709.59,393.33,709.54 C393.18,709.47,393.16,709.46,392.78,709.46 V709.24 C393.04,709.24,393.59,709.24,393.59,709.55 C393.59,709.79,393.24,709.82,392.86,709.82 C392.65,709.82,392.3,709.8,391.93,709.63 C391.7,709.75,391.53,709.94,391.53,710.2 C391.53,710.81,392.51,711.17,393.41,711.17 C393.57,711.17,393.93,711.17,394.33,710.89 C394.43,710.81,394.45,710.79,394.52,710.79 C394.65,710.79,394.79,710.92,394.79,711.06 C394.79,711.25,394.19,711.62,393.51,711.62 C392.36,711.62,391.28,710.96,391.28,710.2 C391.28,709.78,391.64,709.53,391.68,709.5 C391.09,709.17,390.77,708.61,390.77,708.16 C390.77,707.51,391.34,706.91,392.4,706.91 C393.72,706.91,394.27,707.78,394.27,707.93 C394.27,707.99,394.23,708.03,394.17,708.03 C394.12,708.03,394.09,707.99,394.07,707.96 C393.93,707.73,393.69,707.36,392.49,707.36 C391.88,707.36,391.04,707.51,391.04,708.22 C391.04,708.55,391.31,709.08,391.92,709.38 Z " /><path
       id="path4510"
       fill="black"
       stroke-width="0"
       d="M397.65,710.38 V710.13 C398.12,710.13,398.17,710.08,398.17,709.74 V708.3 C397.92,708.55,397.58,708.7,397.2,708.7 L397.23,708.5 C397.57,708.5,397.87,708.35,398.06,708.1 C398.15,707.99,398.15,707.98,398.15,707.85 V706.36 C397.96,706.03,397.61,705.76,397.15,705.76 C396.76,705.76,396.48,705.99,396.34,706.19 C396.2,706.4,396.12,706.67,396.12,707.12 C396.12,707.28,396.12,707.8,396.41,708.13 C396.68,708.44,397.03,708.5,397.23,708.5 L397.2,708.7 C396.27,708.7,395.48,708,395.48,707.13 C395.48,706.26,396.22,705.56,397.11,705.56 C397.68,705.56,398.03,705.87,398.15,705.99 V705.56 L399.22,705.63 V705.88 C398.76,705.88,398.7,705.93,398.7,706.27 V710.46 Z " /></g>  <g
     id="g4674"
     transform="matrix(2,0,0,-2,271.76903,1611.7387)"
     xml:space="preserve"
     stroke="black"
     stroke-linecap="butt"
     stroke-linejoin="miter"
     stroke-miterlimit="10.433"
     stroke-dasharray="none"
     stroke-dashoffset="0"
     stroke-opacity="1"
     fill="none"
     fill-rule="evenodd"
     fill-opacity="1"
     font-style="normal"
     font-variant="normal"
     font-weight="normal"
     font-stretch="normal"
     font-size-adjust="none"
     letter-spacing="normal"
     word-spacing="normal"
     text-anchor="start"
     ns0:text="\\begin{equation*}\n\\varepsilon_\\mathrm{d}\n\\end{equation*}"
     ns0:preamble="/data/settings/inkscape/textext_preamble.tex"
     style="font-style:normal;font-variant:normal;font-weight:normal;font-stretch:normal;letter-spacing:normal;word-spacing:normal;text-anchor:start;fill:none;fill-opacity:1;fill-rule:evenodd;stroke:#000000;stroke-linecap:butt;stroke-linejoin:miter;stroke-miterlimit:10.43299961;stroke-dasharray:none;stroke-dashoffset:0;stroke-opacity:1"><path
       d="M391.92,709.38 L391.95,709.37 L391.98,709.36 L392.01,709.34 L392.04,709.33 L392.07,709.32 L392.1,709.32 L392.13,709.31 L392.16,709.3 L392.19,709.29 L392.22,709.29 L392.27,709.27 L392.33,709.27 L392.38,709.26 L392.44,709.25 L392.49,709.25 L392.54,709.25 L392.59,709.24 L392.64,709.24 L392.69,709.24 L392.73,709.24 L392.78,709.24 V709.46 C392.56,709.46,392.44,709.46,392.25,709.51 H392.25 C392.48,709.59,392.69,709.6,392.86,709.6 C393.11,709.6,393.15,709.59,393.33,709.54 C393.18,709.47,393.16,709.46,392.78,709.46 V709.24 C393.04,709.24,393.59,709.24,393.59,709.55 C393.59,709.79,393.24,709.82,392.86,709.82 C392.65,709.82,392.3,709.8,391.93,709.63 C391.7,709.75,391.53,709.94,391.53,710.2 C391.53,710.81,392.51,711.17,393.41,711.17 C393.57,711.17,393.93,711.17,394.33,710.89 C394.43,710.81,394.45,710.79,394.52,710.79 C394.65,710.79,394.79,710.92,394.79,711.06 C394.79,711.25,394.19,711.62,393.51,711.62 C392.36,711.62,391.28,710.96,391.28,710.2 C391.28,709.78,391.64,709.53,391.68,709.5 C391.09,709.17,390.77,708.61,390.77,708.16 C390.77,707.51,391.34,706.91,392.4,706.91 C393.72,706.91,394.27,707.78,394.27,707.93 C394.27,707.99,394.23,708.03,394.17,708.03 C394.12,708.03,394.09,707.99,394.07,707.96 C393.93,707.73,393.69,707.36,392.49,707.36 C391.88,707.36,391.04,707.51,391.04,708.22 C391.04,708.55,391.31,709.08,391.92,709.38 Z "
       stroke-width="0"
       fill="black"
       id="path4676" /><path
       d="M397.65,710.38 V710.13 C398.12,710.13,398.17,710.08,398.17,709.74 V708.3 C397.92,708.55,397.58,708.7,397.2,708.7 L397.23,708.5 C397.57,708.5,397.87,708.35,398.06,708.1 C398.15,707.99,398.15,707.98,398.15,707.85 V706.36 C397.96,706.03,397.61,705.76,397.15,705.76 C396.76,705.76,396.48,705.99,396.34,706.19 C396.2,706.4,396.12,706.67,396.12,707.12 C396.12,707.28,396.12,707.8,396.41,708.13 C396.68,708.44,397.03,708.5,397.23,708.5 L397.2,708.7 C396.27,708.7,395.48,708,395.48,707.13 C395.48,706.26,396.22,705.56,397.11,705.56 C397.68,705.56,398.03,705.87,398.15,705.99 V705.56 L399.22,705.63 V705.88 C398.76,705.88,398.7,705.93,398.7,706.27 V710.46 Z "
       stroke-width="0"
       fill="black"
       id="path4678" /></g>  <g
     style="font-style:normal;font-variant:normal;font-weight:normal;font-stretch:normal;letter-spacing:normal;word-spacing:normal;text-anchor:start;fill:none;fill-opacity:1;fill-rule:evenodd;stroke:#000000;stroke-linecap:butt;stroke-linejoin:miter;stroke-miterlimit:10.43299961;stroke-dasharray:none;stroke-dashoffset:0;stroke-opacity:1"
     ns0:preamble="/data/settings/inkscape/textext_preamble.tex"
     ns0:text="\\begin{equation*}\n\\frac{\\partial V}{\\partial \\varepsilon_\\mathrm{d}}\n\\end{equation*}"
     text-anchor="start"
     word-spacing="normal"
     letter-spacing="normal"
     font-size-adjust="none"
     font-stretch="normal"
     font-weight="normal"
     font-variant="normal"
     font-style="normal"
     fill-opacity="1"
     fill-rule="evenodd"
     fill="none"
     stroke-opacity="1"
     stroke-dashoffset="0"
     stroke-dasharray="none"
     stroke-miterlimit="10.433"
     stroke-linejoin="miter"
     stroke-linecap="butt"
     stroke="black"
     xml:space="preserve"
     transform="matrix(2,0,0,-2,-222.73648,1434.56)"
     id="content"><path
       id="path4837"
       fill="black"
       stroke-width="0"
       d="M392.97,713.54 L392.96,713.59 L392.95,713.65 L392.93,713.71 L392.92,713.76 L392.9,713.82 L392.88,713.87 L392.86,713.93 L392.84,713.98 L392.81,714.03 L392.78,714.08 L392.76,714.13 L392.73,714.18 L392.69,714.22 L392.66,714.27 L392.62,714.31 L392.58,714.35 L392.54,714.39 L392.5,714.43 L392.45,714.47 L392.41,714.5 L392.36,714.53 L392.31,714.56 L392.25,714.59 L392.2,714.61 L392.14,714.63 L392.08,714.65 L392.02,714.67 L391.96,714.68 L391.89,714.69 L391.83,714.7 L391.76,714.71 L391.68,714.71 V714.49 C392.77,714.49,392.79,713.38,392.79,713.18 C392.79,712.46,392.15,710.23,390.62,710.23 H390.62 C389.52,710.23,389.52,711.25,389.52,711.35 C389.52,711.62,389.77,713.01,390.18,713.61 C390.58,714.17,391.07,714.49,391.68,714.49 V714.71 C391.08,714.71,390.43,714.55,389.65,713.78 C388.82,712.95,388.75,712.03,388.75,711.72 C388.75,711.1,389.19,709.95,390.59,709.95 C392.96,709.95,394,713.29,394,714.71 C394,716.29,393.07,717.28,391.84,717.28 C390.4,717.28,389.94,715.99,389.94,715.71 C389.94,715.57,390.02,715.36,390.32,715.36 C390.65,715.36,390.86,715.66,390.86,715.89 C390.86,716.24,390.55,716.24,390.39,716.24 C390.83,716.97,391.54,717.03,391.82,717.03 C392.55,717.03,393.25,716.52,393.25,715.23 C393.25,714.85,393.19,714.34,392.98,713.54 Z " /><path
       id="path4839"
       fill="black"
       stroke-width="0"
       d="M400.46,715.82 L400.51,715.89 L400.55,715.96 L400.6,716.02 L400.64,716.08 L400.69,716.13 L400.73,716.18 L400.77,716.23 L400.82,716.27 L400.86,716.31 L400.9,716.35 L400.94,716.39 L400.98,716.42 L401.03,716.45 L401.07,716.47 L401.11,716.5 L401.15,716.52 L401.19,716.54 L401.23,716.55 L401.26,716.57 L401.3,716.58 L401.34,716.59 L401.38,716.6 L401.42,716.61 L401.45,716.62 L401.49,716.62 L401.53,716.63 L401.6,716.64 L401.67,716.64 L401.74,716.65 C401.86,716.66,401.87,716.83,401.87,716.84 C401.87,716.91,401.82,716.95,401.74,716.95 C401.48,716.95,401.19,716.92,400.92,716.92 C400.59,716.92,400.25,716.95,399.93,716.95 C399.88,716.95,399.75,716.95,399.75,716.77 C399.75,716.66,399.83,716.65,399.9,716.65 C400.17,716.63,400.36,716.53,400.36,716.32 C400.36,716.17,400.21,715.95,400.21,715.94 L397.15,711.09 L396.48,716.35 C396.48,716.52,396.7,716.65,397.16,716.65 C397.3,716.65,397.41,716.65,397.41,716.84 C397.41,716.93,397.33,716.95,397.27,716.95 C396.87,716.95,396.45,716.92,396.04,716.92 C395.86,716.92,395.67,716.93,395.49,716.93 C395.31,716.93,395.12,716.95,394.95,716.95 C394.88,716.95,394.76,716.95,394.76,716.77 C394.76,716.65,394.85,716.65,395.01,716.65 C395.57,716.65,395.58,716.56,395.61,716.31 L396.39,710.18 C396.42,709.98,396.46,709.95,396.59,709.95 C396.75,709.95,396.79,710,396.87,710.13 Z " /><line
       id="line4841"
       stroke-width="0.398"
       y2="705.92"
       x2="402.98"
       y1="705.92"
       x1="387.59" /><path
       id="path4843"
       fill="black"
       stroke-width="0"
       d="M392.21,699.96 L392.2,700.02 L392.19,700.08 L392.17,700.14 L392.16,700.19 L392.14,700.25 L392.12,700.3 L392.1,700.35 L392.08,700.41 L392.05,700.46 L392.02,700.51 L392,700.56 L391.97,700.61 L391.93,700.65 L391.9,700.7 L391.86,700.74 L391.82,700.78 L391.78,700.82 L391.74,700.86 L391.69,700.89 L391.65,700.93 L391.6,700.96 L391.55,700.99 L391.49,701.01 L391.44,701.04 L391.38,701.06 L391.32,701.08 L391.26,701.1 L391.2,701.11 L391.13,701.12 L391.07,701.13 L391,701.13 L390.92,701.14 V700.92 C392.01,700.92,392.03,699.8,392.03,699.61 C392.03,698.89,391.39,696.66,389.86,696.66 H389.86 C388.76,696.66,388.76,697.68,388.76,697.78 C388.76,698.05,389.01,699.44,389.42,700.03 C389.82,700.6,390.31,700.92,390.92,700.92 V701.14 C390.32,701.14,389.67,700.98,388.89,700.2 C388.06,699.38,387.99,698.45,387.99,698.15 C387.99,697.53,388.43,696.38,389.83,696.38 C392.2,696.38,393.24,699.72,393.24,701.14 C393.24,702.72,392.31,703.71,391.08,703.71 C389.64,703.71,389.18,702.42,389.18,702.14 C389.18,702,389.26,701.79,389.56,701.79 C389.89,701.79,390.1,702.09,390.1,702.32 C390.1,702.67,389.79,702.67,389.63,702.67 C390.07,703.4,390.77,703.46,391.06,703.46 C391.79,703.46,392.49,702.94,392.49,701.66 C392.49,701.28,392.43,700.77,392.22,699.96 Z " /><path
       id="path4845"
       fill="black"
       stroke-width="0"
       d="M394.85,698.85 L394.88,698.84 L394.91,698.83 L394.94,698.82 L394.97,698.81 L395,698.8 L395.03,698.79 L395.06,698.78 L395.09,698.77 L395.11,698.76 L395.14,698.76 L395.2,698.75 L395.26,698.74 L395.31,698.73 L395.36,698.72 L395.41,698.72 L395.47,698.72 L395.52,698.71 L395.56,698.71 L395.61,698.71 L395.66,698.71 L395.7,698.71 V698.93 C395.48,698.93,395.37,698.93,395.18,698.98 H395.18 C395.41,699.06,395.61,699.07,395.78,699.07 C396.03,699.07,396.07,699.06,396.25,699.01 C396.1,698.94,396.08,698.93,395.7,698.93 V698.71 C395.96,698.71,396.51,698.71,396.51,699.02 C396.51,699.26,396.16,699.29,395.78,699.29 C395.58,699.29,395.23,699.27,394.86,699.1 C394.63,699.22,394.46,699.41,394.46,699.67 C394.46,700.28,395.43,700.64,396.33,700.64 C396.49,700.64,396.85,700.64,397.25,700.36 C397.36,700.28,397.38,700.26,397.45,700.26 C397.58,700.26,397.72,700.39,397.72,700.53 C397.72,700.72,397.11,701.1,396.43,701.1 C395.29,701.1,394.21,700.43,394.21,699.67 C394.21,699.25,394.57,699,394.61,698.97 C394.02,698.64,393.7,698.09,393.7,697.63 C393.7,696.98,394.27,696.38,395.33,696.38 C396.64,696.38,397.2,697.25,397.2,697.4 C397.2,697.46,397.15,697.5,397.09,697.5 C397.04,697.5,397.01,697.46,396.99,697.43 C396.85,697.2,396.61,696.83,395.42,696.83 C394.81,696.83,393.96,696.98,393.96,697.69 C393.96,698.03,394.24,698.55,394.85,698.85 Z " /><path
       id="path4847"
       fill="black"
       stroke-width="0"
       d="M400.57,699.85 V699.6 C401.04,699.6,401.1,699.55,401.1,699.21 V697.77 C400.84,698.02,400.5,698.17,400.12,698.17 L400.15,697.97 C400.49,697.97,400.79,697.82,400.98,697.57 C401.07,697.46,401.07,697.45,401.07,697.32 V695.83 C400.89,695.5,400.53,695.23,400.08,695.23 C399.68,695.23,399.4,695.46,399.27,695.66 C399.12,695.87,399.04,696.14,399.04,696.59 C399.04,696.75,399.04,697.27,399.33,697.6 C399.61,697.91,399.95,697.97,400.15,697.97 L400.12,698.17 C399.19,698.17,398.4,697.47,398.4,696.6 C398.4,695.73,399.15,695.03,400.03,695.03 C400.61,695.03,400.95,695.34,401.07,695.46 V695.03 L402.14,695.1 V695.35 C401.68,695.35,401.62,695.4,401.62,695.74 V699.93 Z " /></g>  <g
     id="g4325"
     transform="matrix(1.6,0,0,-1.6,-116.60181,1367.5227)"
     xml:space="preserve"
     stroke="black"
     stroke-linecap="butt"
     stroke-linejoin="miter"
     stroke-miterlimit="10.433"
     stroke-dasharray="none"
     stroke-dashoffset="0"
     stroke-opacity="1"
     fill="none"
     fill-rule="evenodd"
     fill-opacity="1"
     font-style="normal"
     font-variant="normal"
     font-weight="normal"
     font-stretch="normal"
     font-size-adjust="none"
     letter-spacing="normal"
     word-spacing="normal"
     text-anchor="start"
     ns0:text="$4 \\mu$"
     ns0:preamble="/data/settings/inkscape/textext_preamble.tex"
     style="font-style:normal;font-variant:normal;font-weight:normal;font-stretch:normal;letter-spacing:normal;word-spacing:normal;text-anchor:start;fill:none;fill-opacity:1;fill-rule:evenodd;stroke:#000000;stroke-linecap:butt;stroke-linejoin:miter;stroke-miterlimit:10.43299961;stroke-dasharray:none;stroke-dashoffset:0;stroke-opacity:1"><path
       d="M226.36,708.76 V707.9 C226.36,707.54,226.34,707.43,225.61,707.43 H225.4 V707.12 C225.8,707.16,226.32,707.16,226.74,707.16 C227.16,707.16,227.69,707.16,228.1,707.12 V707.43 H227.89 C227.15,707.43,227.13,707.54,227.13,707.9 V708.76 H228.13 V709.07 H227.13 V713.59 C227.13,713.79,227.13,713.85,226.97,713.85 C226.88,713.85,226.85,713.85,226.77,713.73 L223.71,709.07 H223.99 L226.42,712.78 V709.07 H223.99 H223.71 V708.76 Z "
       stroke-width="0"
       fill="black"
       id="path4327" /><path
       d="M230.72,710.61 L230.72,710.63 L230.73,710.65 L230.73,710.67 L230.74,710.7 L230.74,710.72 L230.75,710.74 L230.76,710.79 L230.77,710.84 L230.79,710.89 L230.8,710.94 L230.81,710.99 L230.82,711.01 L230.82,711.04 L230.83,711.06 L230.83,711.08 L230.84,711.1 L230.84,711.12 L230.85,711.14 L230.85,711.16 L230.85,711.17 L230.86,711.19 L230.86,711.2 L230.86,711.21 L230.86,711.22 L230.86,711.23 L230.87,711.24 L230.87,711.24 L230.87,711.25 C230.87,711.42,230.75,711.52,230.58,711.52 C230.55,711.52,230.27,711.51,230.18,711.16 L228.74,705.41 C228.71,705.29,228.71,705.27,228.71,705.25 C228.71,705.1,228.82,704.98,228.99,704.98 C229.2,704.98,229.32,705.16,229.34,705.19 C229.38,705.28,229.51,705.79,229.89,707.32 C230.21,707.05,230.66,707.02,230.86,707.02 C231.55,707.02,231.94,707.46,232.18,707.74 C232.27,707.29,232.64,707.02,233.08,707.02 C233.43,707.02,233.66,707.24,233.82,707.56 C233.99,707.92,234.12,708.53,234.12,708.55 C234.12,708.65,234.03,708.65,234,708.65 C233.9,708.65,233.89,708.6,233.86,708.47 C233.69,707.82,233.51,707.23,233.1,707.23 C232.83,707.23,232.8,707.49,232.8,707.69 C232.8,707.91,232.92,708.38,233,708.72 L233.28,709.8 C233.31,709.95,233.41,710.32,233.45,710.47 C233.5,710.7,233.6,711.08,233.6,711.14 C233.6,711.32,233.46,711.41,233.31,711.41 C233.26,711.41,233,711.4,232.92,711.06 L232.45,709.2 C232.33,708.7,232.22,708.29,232.19,708.19 C232.18,708.14,231.7,707.23,230.9,707.23 C230.4,707.23,230.16,707.56,230.16,708.1 C230.16,708.39,230.23,708.66,230.3,708.94 Z "
       stroke-width="0"
       fill="black"
       id="path4329" /></g>  <g
     style="font-style:normal;font-variant:normal;font-weight:normal;font-stretch:normal;letter-spacing:normal;word-spacing:normal;text-anchor:start;fill:none;fill-opacity:1;fill-rule:evenodd;stroke:#000000;stroke-linecap:butt;stroke-linejoin:miter;stroke-miterlimit:10.43299961;stroke-dasharray:none;stroke-dashoffset:0;stroke-opacity:1"
     ns0:preamble="/data/settings/inkscape/textext_preamble.tex"
     ns0:text="$4 \\mu$"
     text-anchor="start"
     word-spacing="normal"
     letter-spacing="normal"
     font-size-adjust="none"
     font-stretch="normal"
     font-weight="normal"
     font-variant="normal"
     font-style="normal"
     fill-opacity="1"
     fill-rule="evenodd"
     fill="none"
     stroke-opacity="1"
     stroke-dashoffset="0"
     stroke-dasharray="none"
     stroke-miterlimit="10.433"
     stroke-linejoin="miter"
     stroke-linecap="butt"
     stroke="black"
     xml:space="preserve"
     transform="matrix(1.6,0,0,-1.6,455.57713,1319.3071)"
     id="g4490"><path
       id="path4492"
       fill="black"
       stroke-width="0"
       d="M226.36,708.76 V707.9 C226.36,707.54,226.34,707.43,225.61,707.43 H225.4 V707.12 C225.8,707.16,226.32,707.16,226.74,707.16 C227.16,707.16,227.69,707.16,228.1,707.12 V707.43 H227.89 C227.15,707.43,227.13,707.54,227.13,707.9 V708.76 H228.13 V709.07 H227.13 V713.59 C227.13,713.79,227.13,713.85,226.97,713.85 C226.88,713.85,226.85,713.85,226.77,713.73 L223.71,709.07 H223.99 L226.42,712.78 V709.07 H223.99 H223.71 V708.76 Z " /><path
       id="path4494"
       fill="black"
       stroke-width="0"
       d="M230.72,710.61 L230.72,710.63 L230.73,710.65 L230.73,710.67 L230.74,710.7 L230.74,710.72 L230.75,710.74 L230.76,710.79 L230.77,710.84 L230.79,710.89 L230.8,710.94 L230.81,710.99 L230.82,711.01 L230.82,711.04 L230.83,711.06 L230.83,711.08 L230.84,711.1 L230.84,711.12 L230.85,711.14 L230.85,711.16 L230.85,711.17 L230.86,711.19 L230.86,711.2 L230.86,711.21 L230.86,711.22 L230.86,711.23 L230.87,711.24 L230.87,711.24 L230.87,711.25 C230.87,711.42,230.75,711.52,230.58,711.52 C230.55,711.52,230.27,711.51,230.18,711.16 L228.74,705.41 C228.71,705.29,228.71,705.27,228.71,705.25 C228.71,705.1,228.82,704.98,228.99,704.98 C229.2,704.98,229.32,705.16,229.34,705.19 C229.38,705.28,229.51,705.79,229.89,707.32 C230.21,707.05,230.66,707.02,230.86,707.02 C231.55,707.02,231.94,707.46,232.18,707.74 C232.27,707.29,232.64,707.02,233.08,707.02 C233.43,707.02,233.66,707.24,233.82,707.56 C233.99,707.92,234.12,708.53,234.12,708.55 C234.12,708.65,234.03,708.65,234,708.65 C233.9,708.65,233.89,708.6,233.86,708.47 C233.69,707.82,233.51,707.23,233.1,707.23 C232.83,707.23,232.8,707.49,232.8,707.69 C232.8,707.91,232.92,708.38,233,708.72 L233.28,709.8 C233.31,709.95,233.41,710.32,233.45,710.47 C233.5,710.7,233.6,711.08,233.6,711.14 C233.6,711.32,233.46,711.41,233.31,711.41 C233.26,711.41,233,711.4,232.92,711.06 L232.45,709.2 C232.33,708.7,232.22,708.29,232.19,708.19 C232.18,708.14,231.7,707.23,230.9,707.23 C230.4,707.23,230.16,707.56,230.16,708.1 C230.16,708.39,230.23,708.66,230.3,708.94 Z " /></g></svg>
