<?xml version="1.0" encoding="UTF-8" standalone="no"?>
<!-- Created with matplotlib (http://matplotlib.org/) -->

<svg
   xmlns:ns0="http://www.iki.fi/pav/software/textext/"
   xmlns:dc="http://purl.org/dc/elements/1.1/"
   xmlns:cc="http://creativecommons.org/ns#"
   xmlns:rdf="http://www.w3.org/1999/02/22-rdf-syntax-ns#"
   xmlns:svg="http://www.w3.org/2000/svg"
   xmlns="http://www.w3.org/2000/svg"
   xmlns:sodipodi="http://sodipodi.sourceforge.net/DTD/sodipodi-0.dtd"
   xmlns:inkscape="http://www.inkscape.org/namespaces/inkscape"
   sodipodi:docname="potential_U-V_elas.svg"
   inkscape:version="0.91 r13725"
   id="svg2"
   width="1067.6693pt"
   viewBox="0 0 1067.6693 380.72357"
   version="1.1"
   height="380.72357pt">
  <sodipodi:namedview
     inkscape:current-layer="svg2"
     inkscape:window-maximized="1"
     inkscape:window-y="0"
     inkscape:window-x="0"
     inkscape:cy="199.13802"
     inkscape:cx="134.30468"
     inkscape:zoom="0.50651937"
     inkscape:snap-midpoints="true"
     inkscape:snap-smooth-nodes="true"
     inkscape:object-nodes="true"
     inkscape:snap-intersection-paths="true"
     inkscape:object-paths="true"
     inkscape:snap-bbox="true"
     inkscape:guide-bbox="true"
     showguides="true"
     showgrid="false"
     id="namedview78"
     inkscape:window-height="1396"
     inkscape:window-width="2560"
     inkscape:pageshadow="2"
     inkscape:pageopacity="0"
     guidetolerance="10"
     gridtolerance="10"
     objecttolerance="10"
     borderopacity="1"
     bordercolor="#666666"
     pagecolor="#ffffff"
     fit-margin-top="0"
     fit-margin-left="0"
     fit-margin-right="0"
     fit-margin-bottom="0">
    <sodipodi:guide
       position="1.28591,364.97424"
       orientation="1,0"
       id="guide4573" />
    <sodipodi:guide
       position="1.28591,364.97424"
       orientation="0,1"
       id="guide4575" />
    <sodipodi:guide
       position="233.88517,31.455634"
       orientation="1,0"
       id="guide4577" />
    <sodipodi:guide
       position="466.48442,364.97424"
       orientation="1,0"
       id="guide4579" />
    <sodipodi:guide
       position="602.07314,32.008441"
       orientation="1,0"
       id="guide4583" />
    <sodipodi:guide
       position="233.88517,47.357866"
       orientation="0,1"
       id="guide4585" />
    <sodipodi:guide
       position="1063.879,345.84121"
       orientation="1,0"
       id="guide5265" />
    <sodipodi:guide
       position="602.07314,380.32367"
       orientation="0,1"
       id="guide4283" />
  </sodipodi:namedview>
  <metadata
     id="metadata80">
    <rdf:RDF>
      <cc:Work
         rdf:about="">
        <dc:format>image/svg+xml</dc:format>
        <dc:type
           rdf:resource="http://purl.org/dc/dcmitype/StillImage" />
        <dc:title />
      </cc:Work>
    </rdf:RDF>
  </metadata>
  <defs
     id="defs4"
     style="stroke-linecap:butt;stroke-linejoin:round">
    <marker
       inkscape:isstock="true"
       style="overflow:visible;stroke-linecap:butt;stroke-linejoin:round"
       id="marker5305"
       refX="0"
       refY="0"
       orient="auto"
       inkscape:stockid="Arrow1Lend">
      <path
         transform="matrix(-0.8,0,0,-0.8,-10,0)"
         style="fill:#000000;fill-opacity:1;fill-rule:evenodd;stroke:#000000;stroke-width:1pt;stroke-linecap:butt;stroke-linejoin:round;stroke-opacity:1"
         d="M 0,0 5,-5 -12.5,0 5,5 0,0 Z"
         id="path5307"
         inkscape:connector-curvature="0" />
    </marker>
    <marker
       inkscape:isstock="true"
       style="overflow:visible;stroke-linecap:butt;stroke-linejoin:round"
       id="marker5277"
       refX="0"
       refY="0"
       orient="auto"
       inkscape:stockid="Arrow1Lend">
      <path
         transform="matrix(-0.8,0,0,-0.8,-10,0)"
         style="fill:#000000;fill-opacity:1;fill-rule:evenodd;stroke:#000000;stroke-width:1pt;stroke-linecap:butt;stroke-linejoin:round;stroke-opacity:1"
         d="M 0,0 5,-5 -12.5,0 5,5 0,0 Z"
         id="path5279"
         inkscape:connector-curvature="0" />
    </marker>
    <marker
       inkscape:isstock="true"
       style="overflow:visible;stroke-linecap:butt;stroke-linejoin:round"
       id="marker4877"
       refX="0"
       refY="0"
       orient="auto"
       inkscape:stockid="Arrow1Lend">
      <path
         transform="matrix(-0.8,0,0,-0.8,-10,0)"
         style="fill:#000000;fill-opacity:1;fill-rule:evenodd;stroke:#000000;stroke-width:1pt;stroke-linecap:butt;stroke-linejoin:round;stroke-opacity:1"
         d="M 0,0 5,-5 -12.5,0 5,5 0,0 Z"
         id="path4879"
         inkscape:connector-curvature="0" />
    </marker>
    <marker
       inkscape:stockid="Arrow1Lend"
       orient="auto"
       refY="0"
       refX="0"
       id="Arrow1Lend"
       style="overflow:visible;stroke-linecap:butt;stroke-linejoin:round"
       inkscape:isstock="true"
       inkscape:collect="always">
      <path
         id="path4598"
         d="M 0,0 5,-5 -12.5,0 5,5 0,0 Z"
         style="fill:#000000;fill-opacity:1;fill-rule:evenodd;stroke:#000000;stroke-width:1pt;stroke-linecap:butt;stroke-linejoin:round;stroke-opacity:1"
         transform="matrix(-0.8,0,0,-0.8,-10,0)"
         inkscape:connector-curvature="0" />
    </marker>
    <style
       type="text/css"
       id="style6">
*{stroke-linecap:butt;stroke-linejoin:round;}
  </style>
    <clipPath
       id="pc0a3c51628"
       style="stroke-linecap:butt;stroke-linejoin:round">
      <rect
         height="349.40045"
         width="511.05588"
         x="42.004128"
         y="22.940001"
         id="rect81"
         style="stroke-linecap:butt;stroke-linejoin:round" />
    </clipPath>
    <defs
       id="defs35">
      <path
         d="m 13.90625,22.296875 c 3.1875,-1.28125 6.59375,-1.28125 8.5,-1.28125 2.59375,0 7.796875,0 7.796875,3.203125 0,2 -1.90625,2.78125 -7,2.78125 -2.5,0 -5.5,-0.296875 -9,-1.796875 C 11.09375,26.6875 9.90625,28.9375 9.90625,31.09375 c 0,6.078125 9.796875,9.625 18.6875,9.625 1.703125,0 5.3125,0 9.5,-3.046875 0.609375,-0.375 0.90625,-0.6875 1.609375,-0.6875 1.203125,0 2.5,1.28125 2.5,2.484375 C 42.203125,41.234375 36.40625,45 29.5,45 18.296875,45 7.703125,38.265625 7.703125,30.8125 c 0,-3.71875 2.390625,-6.03125 4.09375,-7.234375 C 6,20.328125 2.59375,15.015625 2.59375,10.1875 2.59375,3.421875 8.796875,-2 18.40625,-2 c 13.1875,0 18.5,8.625 18.5,10 C 36.90625,8.484375 36.5,8.875 36,8.875 35.5,8.875 35.296875,8.578125 34.90625,8 33.796875,6.171875 31.203125,2.28125 19.296875,2.28125 c -6.203125,0 -14.390625,1.546875 -14.390625,8.4375 0,3.3125 2.5,8.25 9,11.578125 z M 17,23.71875 C 19.703125,25 22.296875,25 23,25 25.796875,25 26.296875,24.734375 27.90625,24.140625 26.203125,23 26,23 22.40625,23 20.59375,23 19,23 17,23.71875 Z"
         id="CMMI12-34"
         inkscape:connector-curvature="0"
         style="stroke-linecap:butt;stroke-linejoin:round" />
      <path
         d="m 67.59375,30.203125 c 0,4.984375 -0.890625,13.390625 -12.796875,13.390625 C 48,43.59375 43.296875,39 41.5,33.609375 l -0.09375,0 c -1.203125,8.203125 -7.109375,9.984375 -12.703125,9.984375 -7.90625,0 -12,-6.09375 -13.5,-10.09375 l -0.109375,0 0,10.09375 L 3.296875,42.5 l 0,-2.59375 c 5.90625,0 6.796875,-0.609375 6.796875,-5.40625 l 0,-27.8125 c 0,-3.8125 -0.390625,-4.296875 -6.796875,-4.296875 l 0,-2.59375 C 5.703125,0 10.09375,0 12.703125,0 c 2.59375,0 7.09375,0 9.5,-0.203125 l 0,2.59375 c -6.40625,0 -6.796875,0.390625 -6.796875,4.296875 l 0,19.21875 C 15.40625,35.109375 21,42 28,42 c 7.40625,0 8.203125,-6.59375 8.203125,-11.40625 l 0,-23.90625 c 0,-3.8125 -0.40625,-4.296875 -6.796875,-4.296875 l 0,-2.59375 C 31.796875,0 36.203125,0 38.796875,0 c 2.609375,0 7.109375,0 9.5,-0.203125 l 0,2.59375 C 41.90625,2.390625 41.5,2.78125 41.5,6.6875 l 0,19.21875 C 41.5,35.109375 47.09375,42 54.09375,42 61.5,42 62.296875,35.40625 62.296875,30.59375 l 0,-23.90625 C 62.296875,2.875 61.90625,2.390625 55.5,2.390625 l 0,-2.59375 C 57.90625,0 62.296875,0 64.90625,0 67.5,0 72,0 74.40625,-0.203125 l 0,2.59375 c -6.40625,0 -6.8125,0.390625 -6.8125,4.296875 z"
         id="CMR17-109"
         inkscape:connector-curvature="0"
         style="stroke-linecap:butt;stroke-linejoin:round" />
    </defs>
    <defs
       id="defs47">
      <path
         d="M 50.59375,23.03125 C 47.09375,9.078125 35.5,0.890625 26.09375,0.890625 18.90625,0.890625 14,5.671875 14,13.921875 c 0,0.390625 0,3.375 1.09375,7.75 l 9.8125,39.0625 c 0.890625,3.375 1.09375,4.375 8.1875,4.375 1.8125,0 2.8125,0 2.8125,1.796875 C 35.90625,68 35,68 34.40625,68 32.59375,68 30.5,68 28.59375,68 l -11.796875,0 c -1.890625,0 -4,0 -5.890625,0 C 10.203125,68 9,68 9,66.109375 c 0,-1 0.703125,-1 2.59375,-1 6,0 6,-0.796875 6,-1.890625 0,-0.59375 -0.6875,-3.46875 -1.1875,-5.171875 L 7.703125,23.25 C 7.40625,22.15625 6.796875,19.46875 6.796875,16.796875 6.796875,5.84375 14.703125,-2 25.59375,-2 35.703125,-2 46.90625,6 52,18.703125 c 0.703125,1.6875 1.59375,5.203125 2.203125,7.890625 1,3.609375 3.09375,12.40625 3.796875,15 l 3.796875,15.015625 c 1.296875,5.203125 2.109375,8.5 10.90625,8.5 C 73.5,65.203125 73.90625,66 73.90625,66.90625 73.90625,68 73,68 72.59375,68 71.203125,68 69.40625,68 68,68 l -4.703125,0 c -6.203125,0 -9.390625,0 -9.5,0 C 53.203125,68 52,68 52,66.109375 c 0,-1 0.796875,-1 1.5,-1 6,0 6.40625,-2.296875 6.40625,-4.09375 0,-0.890625 0,-1.203125 -0.40625,-2.59375 z"
         id="CMMI12-85"
         inkscape:connector-curvature="0"
         style="stroke-linecap:butt;stroke-linejoin:round" />
      <path
         d="m 30.59375,-24.390625 c 0,0.09375 0,0.296875 -0.296875,0.59375 -4.59375,4.671875 -16.890625,17.4375 -16.890625,48.5 0,31.0625 12.09375,43.71875 17,48.6875 0,0.109375 0.1875,0.3125 0.1875,0.609375 0,0.296875 -0.296875,0.5 -0.6875,0.5 -1.109375,0 -9.609375,-7.375 -14.5,-18.34375 C 10.40625,45.109375 9,34.359375 9,24.8125 9,17.625 9.703125,5.484375 15.703125,-7.359375 20.5,-17.734375 28.703125,-25 29.90625,-25 c 0.5,0 0.6875,0.203125 0.6875,0.609375 z"
         id="CMR17-40"
         inkscape:connector-curvature="0"
         style="stroke-linecap:butt;stroke-linejoin:round" />
      <path
         d="m 26.296875,24.703125 c 0,7.171875 -0.703125,19.3125 -6.703125,32.15625 -4.796875,10.375 -13,17.640625 -14.1875,17.640625 -0.3125,0 -0.703125,-0.109375 -0.703125,-0.609375 0,-0.1875 0.09375,-0.296875 0.203125,-0.5 4.796875,-4.984375 17,-17.640625 17,-48.640625 0,-31.109375 -12.109375,-43.765625 -17,-48.765625 C 4.796875,-24.203125 4.703125,-24.3125 4.703125,-24.5 c 0,-0.5 0.390625,-0.5 0.703125,-0.5 1.09375,0 9.59375,7.375 14.5,18.34375 5,11.046875 6.390625,21.796875 6.390625,31.359375 z"
         id="CMR17-41"
         inkscape:connector-curvature="0"
         style="stroke-linecap:butt;stroke-linejoin:round" />
    </defs>
    <clipPath
       id="pc0a3c51628-8"
       style="stroke-linecap:butt;stroke-linejoin:round">
      <rect
         height="349.40045"
         width="511.05588"
         x="42.004128"
         y="22.940001"
         id="rect81-9"
         style="stroke-linecap:butt;stroke-linejoin:round" />
    </clipPath>
  </defs>
  <path
     inkscape:connector-curvature="0"
     id="path65"
     style="fill:none;stroke:#000000;stroke-width:2;stroke-linecap:square;stroke-linejoin:round"
     d="m 64.601531,38.821839 7.450627,20.023211 7.450627,19.371388 6.984964,17.568688 6.984963,16.995794 6.984958,16.4229 6.98497,15.85002 6.98496,15.27712 6.5193,13.74176 6.5193,13.24272 6.5193,12.74367 6.5193,12.24461 6.51929,11.74556 6.05364,10.45973 6.05363,10.02943 6.05364,9.59912 6.05363,9.16882 5.58797,8.0816 5.58798,7.71494 5.58796,7.3483 5.58798,6.98164 5.58797,6.61499 5.58797,6.24834 5.1223,5.40556 5.12231,5.09746 5.12231,4.78938 5.1223,4.48129 5.12231,4.1732 5.1223,3.86511 4.65665,3.24639 4.65664,2.99177 4.65664,2.73715 4.65664,2.48253 4.65664,2.22791 4.65665,1.9733 4.65664,1.71867 4.65664,1.46406 4.65664,1.20944 4.19098,0.8708 4.19098,0.66455 4.19098,0.45831 4.19098,0.25208 4.19097,0.0458 4.19098,-0.16041 4.19098,-0.36665 4.19098,-0.57289 4.19097,-0.77914 4.19098,-0.98537 4.65664,-1.33675 4.65665,-1.59137 4.65664,-1.84598 4.65664,-2.10061 4.65664,-2.35522 4.65664,-2.60984 4.65665,-2.86446 4.65664,-3.11908 4.65664,-3.37369 4.65664,-3.62832 5.12231,-4.28523 5.1223,-4.59332 5.12231,-4.90141 5.12231,-5.2095 5.1223,-5.51759 5.12231,-5.82567 5.58797,-6.70666 5.58797,-7.0733 5.58797,-7.43996 5.58797,-7.80661 5.58797,-8.17326 6.05364,-9.26812 6.05363,-9.69842 6.05364,-10.12873 6.05363,-10.55904 6.05364,-10.98934 6.5193,-12.3159 6.51929,-12.81496 6.5193,-13.31401 6.5193,-13.81306 6.5193,-14.31212 6.98496,-15.8882 6.98497,-16.4611 6.98496,-17.033987 6.98496,-17.60688 7.45063,-19.412127 6.98496,-18.790857 0,0"
     clip-path="url(#pe1848b7f66)"
     transform="translate(-63.315621,-23.072523)" />
  <defs
     id="defs73">
    <clipPath
       id="pe1848b7f66"
       style="stroke-linecap:butt;stroke-linejoin:round">
      <rect
         height="349.40045"
         width="511.71838"
         x="41.341602"
         y="22.940001"
         id="rect76"
         style="stroke-linecap:butt;stroke-linejoin:round" />
    </clipPath>
  </defs>
  <path
     id="path70"
     style="fill:none;stroke:#000000;stroke-width:2;stroke-linecap:square;stroke-linejoin:round"
     d="m 65.23394,356.45862 8.836165,-0.1149 8.836165,-0.34469 8.836165,-0.57448 8.836165,-0.80428 8.83617,-1.03407 8.83616,-1.26386 8.83616,-1.49365 8.83617,-1.72345 8.83616,-1.95324 8.83617,-2.18304 8.83616,-2.41283 8.83617,-2.64262 8.83616,-2.87241 8.83617,-3.10221 8.83616,-3.332 8.83617,-3.56179 8.83616,-3.79159 9.30123,-4.23939 9.30122,-4.49402 9.30123,-4.74863 9.30123,-5.00325 9.30122,-5.25787 9.30123,-5.51249 9.30123,-5.76711 9.30122,-6.02172 9.30123,-6.27635 9.76629,-6.86419 9.76628,-7.14491 9.76629,-7.42563 9.76629,-7.70634 9.76629,-7.98707 9.76628,-8.26777 9.76629,-8.5485 10.23135,-9.25665 10.23135,-9.56474 10.23135,-9.87283 10.23135,-10.18092 10.23135,-10.489 10.23134,-10.79709 10.69641,-11.61729 10.69641,-11.95401 10.69641,-12.29075 10.69641,-12.62748 10.69641,-12.96422 11.16148,-13.886886 11.16147,-14.253538 11.16147,-14.620189 11.16147,-14.986839 2.79037,-3.803999 0,0"
     clip-path="url(#pc0a3c51628)"
     inkscape:connector-curvature="0"
     transform="translate(536.83922,-23.092905)" />
  <path
     style="fill:none;fill-rule:evenodd;stroke:#000000;stroke-width:0.80000001px;stroke-linecap:butt;stroke-linejoin:miter;stroke-opacity:1;marker-end:url(#marker4877)"
     d="m 1.285909,333.36569 465.198531,0"
     id="path4587"
     inkscape:connector-curvature="0" />
  <path
     style="fill:none;fill-rule:evenodd;stroke:#000000;stroke-width:0.80000001px;stroke-linecap:butt;stroke-linejoin:miter;stroke-opacity:1;marker-end:url(#Arrow1Lend)"
     d="M 232.95385,333.35552 233.88518,0.39989449"
     id="path4589"
     inkscape:connector-curvature="0"
     sodipodi:nodetypes="cc" />
  <path
     transform="translate(536.83922,-23.092905)"
     inkscape:connector-curvature="0"
     id="path70-8"
     style="fill:none;stroke:#000000;stroke-width:2;stroke-linecap:square;stroke-linejoin:round"
     d="m 65.23394,356.45862 8.836165,-0.1149 8.836165,-0.34469 8.836165,-0.57448 8.836165,-0.80428 8.83617,-1.03407 8.83616,-1.26386 8.83616,-1.49365 8.83617,-1.72345 8.83616,-1.95324 8.83617,-2.18304 8.83616,-2.41283 8.83617,-2.64262 8.83616,-2.87241 8.83617,-3.10221 8.83616,-3.332 8.83617,-3.56179 8.83616,-3.79159 9.30123,-4.23939 9.30122,-4.49402 9.30123,-4.74863 9.30123,-5.00325 9.30122,-5.25787 9.30123,-5.51249 9.30123,-5.76711 9.30122,-6.02172 9.30123,-6.27635 9.76629,-6.86419 9.76628,-7.14491 9.76629,-7.42563 9.76629,-7.70634 9.76629,-7.98707 9.76628,-8.26777 9.76629,-8.5485 10.23135,-9.25665 10.23135,-9.56474 10.23135,-9.87283 10.23135,-10.18092 10.23135,-10.489 10.23134,-10.79709 10.69641,-11.61729 10.69641,-11.95401 10.69641,-12.29075 10.69641,-12.62748 10.69641,-12.96422 11.16148,-13.886886 11.16147,-14.253538 11.16147,-14.620189 11.16147,-14.986839 2.79037,-3.803999 0,0"
     clip-path="url(#pc0a3c51628-8)" />
  <path
     style="fill:none;fill-rule:evenodd;stroke:#000000;stroke-width:0.80000001px;stroke-linecap:butt;stroke-linejoin:miter;stroke-opacity:1;marker-end:url(#marker5305)"
     d="m 602.07316,333.36571 461.80594,0"
     id="path5267"
     inkscape:connector-curvature="0" />
  <path
     style="fill:none;fill-rule:evenodd;stroke:#000000;stroke-width:0.80000001px;stroke-linecap:butt;stroke-linejoin:miter;stroke-opacity:1;marker-end:url(#marker5277)"
     d="m 602.07316,333.36571 0,-332.96581451"
     id="path5269"
     inkscape:connector-curvature="0" />
  <g
     id="g4660"
     transform="matrix(2,0,0,-2,-343.83556,1770.7808)"
     xml:space="preserve"
     stroke-miterlimit="10.433"
     font-style="normal"
     font-variant="normal"
     font-weight="normal"
     font-stretch="normal"
     font-size-adjust="none"
     letter-spacing="normal"
     word-spacing="normal"
     ns0:text="\\begin{equation*}\n\\varepsilon_\\mathrm{m} \n\\end{equation*}"
     ns0:preamble="/data/settings/inkscape/textext_preamble.tex"
     style="font-style:normal;font-variant:normal;font-weight:normal;font-stretch:normal;letter-spacing:normal;word-spacing:normal;text-anchor:start;fill:none;fill-opacity:1;fill-rule:evenodd;stroke:#000000;stroke-linecap:butt;stroke-linejoin:miter;stroke-miterlimit:10.43299961;stroke-dasharray:none;stroke-dashoffset:0;stroke-opacity:1"><path
       style="fill:#000000;stroke-width:0;stroke-linecap:butt;stroke-linejoin:round"
       inkscape:connector-curvature="0"
       d="m 390.85,709.38 0.03,-0.01 0.03,-0.01 0.03,-0.02 0.03,-0.01 0.03,-0.01 0.03,0 0.03,-0.01 0.03,-0.01 0.03,-0.01 0.03,0 0.05,-0.02 0.06,0 0.05,-0.01 0.05,-0.01 0.06,0 0.05,0 0.05,-0.01 0.05,0 0.04,0 0.05,0 0.05,0 0,0.22 c -0.22,0 -0.34,0 -0.53,0.05 l 0,0 c 0.23,0.08 0.44,0.09 0.61,0.09 0.25,0 0.29,-0.01 0.47,-0.06 -0.15,-0.07 -0.17,-0.08 -0.55,-0.08 l 0,-0.22 c 0.26,0 0.8,0 0.8,0.31 0,0.24 -0.34,0.27 -0.72,0.27 -0.21,0 -0.56,-0.02 -0.93,-0.19 -0.23,0.12 -0.4,0.31 -0.4,0.57 0,0.61 0.98,0.97 1.87,0.97 0.16,0 0.52,0 0.92,-0.28 0.11,-0.08 0.13,-0.1 0.2,-0.1 0.13,0 0.27,0.13 0.27,0.27 0,0.19 -0.61,0.56 -1.29,0.56 -1.14,0 -2.22,-0.66 -2.22,-1.42 0,-0.42 0.36,-0.67 0.4,-0.7 -0.59,-0.33 -0.91,-0.89 -0.91,-1.34 0,-0.65 0.57,-1.25 1.63,-1.25 1.31,0 1.87,0.87 1.87,1.02 0,0.06 -0.05,0.1 -0.11,0.1 -0.05,0 -0.08,-0.04 -0.1,-0.07 -0.14,-0.23 -0.38,-0.6 -1.57,-0.6 -0.61,0 -1.46,0.15 -1.46,0.86 0,0.33 0.28,0.86 0.89,1.16 z"
       id="path4662" /><path
       style="fill:#000000;stroke-width:0;stroke-linecap:butt;stroke-linejoin:round"
       inkscape:connector-curvature="0"
       d="m 399.84,707.74 0,0.05 -0.01,0.06 0,0.05 -0.01,0.05 -0.01,0.05 -0.01,0.05 -0.01,0.05 -0.01,0.04 -0.02,0.05 -0.02,0.04 -0.02,0.04 -0.02,0.04 -0.02,0.03 -0.03,0.04 -0.03,0.03 -0.03,0.03 -0.03,0.03 -0.04,0.03 -0.03,0.03 -0.04,0.02 -0.04,0.03 -0.05,0.02 -0.04,0.02 -0.05,0.01 -0.05,0.02 -0.06,0.01 -0.05,0.01 -0.06,0.01 -0.06,0.01 -0.07,0 -0.06,0.01 -0.07,0 c -0.56,0 -0.93,-0.3 -1.12,-0.65 -0.14,0.49 -0.52,0.65 -1.03,0.65 -0.57,0 -0.94,-0.31 -1.14,-0.68 l -0.01,0 0,0.68 -1.02,-0.08 0,-0.25 c 0.46,0 0.52,-0.05 0.52,-0.39 l 0,-1.8 c 0,-0.3 -0.07,-0.3 -0.52,-0.3 l 0,-0.25 c 0.01,0 0.5,0.03 0.79,0.03 0.26,0 0.75,-0.02 0.81,-0.03 l 0,0.25 c -0.46,0 -0.53,0 -0.53,0.3 l 0,1.25 c 0,0.73 0.58,1.07 1.04,1.07 0.5,0 0.56,-0.38 0.56,-0.73 l 0,-1.59 c 0,-0.3 -0.07,-0.3 -0.53,-0.3 l 0,-0.25 c 0.02,0 0.51,0.03 0.8,0.03 0.26,0 0.74,-0.02 0.8,-0.03 l 0,0.25 c -0.45,0 -0.52,0 -0.52,0.3 l 0,1.25 c 0,0.73 0.58,1.07 1.04,1.07 0.49,0 0.55,-0.38 0.55,-0.73 l 0,-1.59 c 0,-0.3 -0.07,-0.3 -0.52,-0.3 l 0,-0.25 c 0.01,0 0.5,0.03 0.8,0.03 0.26,0 0.74,-0.02 0.8,-0.03 l 0,0.25 c -0.45,0 -0.52,0 -0.52,0.3 z"
       id="path4664" /></g>  <g
     style="font-style:normal;font-variant:normal;font-weight:normal;font-stretch:normal;letter-spacing:normal;word-spacing:normal;text-anchor:start;fill:none;fill-opacity:1;fill-rule:evenodd;stroke:#000000;stroke-linecap:butt;stroke-linejoin:miter;stroke-miterlimit:10.43299961;stroke-dasharray:none;stroke-dashoffset:0;stroke-opacity:1"
     ns0:preamble="/data/settings/inkscape/textext_preamble.tex"
     ns0:text="\\begin{equation*}\nU ( \\varepsilon_\\mathrm{m} )\n\\end{equation*}"
     word-spacing="normal"
     letter-spacing="normal"
     font-size-adjust="none"
     font-stretch="normal"
     font-weight="normal"
     font-variant="normal"
     font-style="normal"
     stroke-miterlimit="10.433"
     xml:space="preserve"
     transform="matrix(2,0,0,-2,-515.75763,1444.9093)"
     id="g4800"><path
       style="fill:#000000;stroke-width:0;stroke-linecap:butt;stroke-linejoin:round"
       inkscape:connector-curvature="0"
       id="path4802"
       d="m 387.96,712.87 0.02,0.07 0.01,0.04 0.01,0.03 0.01,0.04 0.02,0.03 0.01,0.04 0.02,0.03 0.01,0.03 0.02,0.03 0.02,0.03 0.02,0.03 0.02,0.03 0.03,0.03 0.03,0.02 0.02,0.03 0.03,0.02 0.04,0.02 0.03,0.02 0.04,0.02 0.04,0.02 0.04,0.02 0.05,0.02 0.04,0.01 0.05,0.02 0.06,0.01 0.05,0.01 0.06,0.01 0.07,0.01 0.06,0 0.07,0.01 0.04,0 0.03,0 c 0.05,0 0.17,0.01 0.17,0.2 0,0.01 0,0.11 -0.13,0.11 -0.33,0 -0.67,-0.03 -1.01,-0.03 -0.34,0 -0.71,0.03 -1.04,0.03 -0.06,0 -0.18,0 -0.18,-0.2 0,-0.11 0.1,-0.11 0.18,-0.11 0.57,-0.01 0.68,-0.22 0.68,-0.44 0,-0.02 -0.02,-0.17 -0.03,-0.2 l -0.9,-3.55 c -0.34,-1.33 -1.48,-2.2 -2.48,-2.2 -0.68,0 -1.22,0.44 -1.22,1.3 0,0.02 0,0.33 0.11,0.77 l 0.97,3.87 c 0.09,0.35 0.11,0.45 0.84,0.45 0.25,0 0.34,0 0.34,0.2 0,0.11 -0.12,0.11 -0.15,0.11 -0.27,0 -0.99,-0.03 -1.27,-0.03 -0.29,0 -1,0.03 -1.29,0.03 -0.08,0 -0.19,0 -0.19,-0.2 0,-0.11 0.09,-0.11 0.28,-0.11 0.02,0 0.21,0 0.38,-0.02 0.18,-0.02 0.27,-0.03 0.27,-0.16 0,-0.06 -0.11,-0.47 -0.17,-0.7 l -0.22,-0.88 c -0.09,-0.38 -0.57,-2.26 -0.61,-2.45 -0.07,-0.28 -0.07,-0.43 -0.07,-0.58 0,-1.21 0.91,-1.9 1.96,-1.9 1.25,0 2.49,1.12 2.82,2.43 z" /><path
       style="fill:#000000;stroke-width:0;stroke-linecap:butt;stroke-linejoin:round"
       inkscape:connector-curvature="0"
       id="path4804"
       d="m 392.81,704.74 0,0.01 0,0 0,0 0,0.01 0,0 0,0 0,0.01 0,0 0,0 0,0.01 -0.01,0 0,0.01 0,0 -0.01,0.01 0,0 -0.01,0.01 0,0.01 -0.01,0 0,0.01 0,0 -0.01,0.01 0,0 -0.01,0 0,0.01 0,0 -0.01,0.01 0,0 -0.01,0.01 0,0 -0.01,0.01 0,0 -0.01,0.01 0,0.01 -0.01,0 -0.01,0.01 0,0.01 -0.01,0 -0.01,0.01 0,0.01 -0.01,0 -0.01,0.01 -0.01,0.01 c -1.24,1.25 -1.56,3.13 -1.56,4.65 0,1.73 0.38,3.46 1.6,4.7 0.13,0.12 0.13,0.14 0.13,0.17 0,0.07 -0.04,0.1 -0.1,0.1 -0.1,0 -0.99,-0.68 -1.58,-1.94 -0.51,-1.09 -0.63,-2.2 -0.63,-3.03 0,-0.78 0.11,-1.98 0.66,-3.1 0.6,-1.22 1.45,-1.87 1.55,-1.87 0.06,0 0.1,0.03 0.1,0.1 z" /><path
       style="fill:#000000;stroke-width:0;stroke-linecap:butt;stroke-linejoin:round"
       inkscape:connector-curvature="0"
       id="path4806"
       d="m 394.79,709.38 0.03,-0.01 0.03,-0.01 0.03,-0.02 0.03,-0.01 0.03,-0.01 0.03,0 0.03,-0.01 0.03,-0.01 0.03,-0.01 0.03,0 0.06,-0.02 0.05,0 0.06,-0.01 0.05,-0.01 0.05,0 0.05,0 0.05,-0.01 0.05,0 0.05,0 0.05,0 0.04,0 0,0.22 c -0.22,0 -0.34,0 -0.53,0.05 l 0,0 c 0.23,0.08 0.44,0.09 0.61,0.09 0.25,0 0.29,-0.01 0.47,-0.06 -0.15,-0.07 -0.17,-0.08 -0.55,-0.08 l 0,-0.22 c 0.26,0 0.81,0 0.81,0.31 0,0.24 -0.35,0.27 -0.73,0.27 -0.21,0 -0.56,-0.02 -0.93,-0.19 -0.23,0.12 -0.4,0.31 -0.4,0.57 0,0.61 0.98,0.97 1.88,0.97 0.16,0 0.52,0 0.92,-0.28 0.11,-0.08 0.13,-0.1 0.2,-0.1 0.12,0 0.27,0.13 0.27,0.27 0,0.19 -0.61,0.56 -1.29,0.56 -1.15,0 -2.23,-0.66 -2.23,-1.42 0,-0.42 0.36,-0.67 0.4,-0.7 -0.59,-0.33 -0.9,-0.89 -0.9,-1.34 0,-0.65 0.56,-1.25 1.62,-1.25 1.32,0 1.88,0.87 1.88,1.02 0,0.06 -0.05,0.1 -0.11,0.1 -0.05,0 -0.08,-0.04 -0.1,-0.07 -0.14,-0.23 -0.38,-0.6 -1.58,-0.6 -0.61,0 -1.45,0.15 -1.45,0.86 0,0.33 0.27,0.86 0.88,1.16 z" /><path
       style="fill:#000000;stroke-width:0;stroke-linecap:butt;stroke-linejoin:round"
       inkscape:connector-curvature="0"
       id="path4808"
       d="m 403.78,707.74 0,0.05 0,0.06 -0.01,0.05 0,0.05 -0.01,0.05 -0.01,0.05 -0.01,0.05 -0.02,0.04 -0.01,0.05 -0.02,0.04 -0.02,0.04 -0.02,0.04 -0.03,0.03 -0.02,0.04 -0.03,0.03 -0.03,0.03 -0.04,0.03 -0.03,0.03 -0.04,0.03 -0.04,0.02 -0.04,0.03 -0.04,0.02 -0.05,0.02 -0.05,0.01 -0.05,0.02 -0.05,0.01 -0.06,0.01 -0.06,0.01 -0.06,0.01 -0.06,0 -0.07,0.01 -0.07,0 c -0.55,0 -0.93,-0.3 -1.12,-0.65 -0.14,0.49 -0.51,0.65 -1.03,0.65 -0.57,0 -0.94,-0.31 -1.13,-0.68 l -0.01,0 0,0.68 -1.03,-0.08 0,-0.25 c 0.47,0 0.52,-0.05 0.52,-0.39 l 0,-1.8 c 0,-0.3 -0.07,-0.3 -0.52,-0.3 l 0,-0.25 c 0.01,0 0.5,0.03 0.8,0.03 0.26,0 0.74,-0.02 0.8,-0.03 l 0,0.25 c -0.45,0 -0.52,0 -0.52,0.3 l 0,1.25 c 0,0.73 0.58,1.07 1.04,1.07 0.49,0 0.55,-0.38 0.55,-0.73 l 0,-1.59 c 0,-0.3 -0.07,-0.3 -0.52,-0.3 l 0,-0.25 c 0.01,0 0.5,0.03 0.79,0.03 0.26,0 0.75,-0.02 0.81,-0.03 l 0,0.25 c -0.46,0 -0.53,0 -0.53,0.3 l 0,1.25 c 0,0.73 0.58,1.07 1.05,1.07 0.49,0 0.55,-0.38 0.55,-0.73 l 0,-1.59 c 0,-0.3 -0.07,-0.3 -0.53,-0.3 l 0,-0.25 c 0.02,0 0.51,0.03 0.8,0.03 0.26,0 0.74,-0.02 0.8,-0.03 l 0,0.25 c -0.45,0 -0.52,0 -0.52,0.3 z" /><path
       style="fill:#000000;stroke-width:0;stroke-linecap:butt;stroke-linejoin:round"
       inkscape:connector-curvature="0"
       id="path4810"
       d="m 407.96,709.61 0,0.07 0,0.08 -0.01,0.08 0,0.08 -0.01,0.17 -0.01,0.17 -0.01,0.18 -0.03,0.19 -0.02,0.2 -0.04,0.2 -0.03,0.2 -0.05,0.21 -0.05,0.21 -0.07,0.21 -0.07,0.21 -0.07,0.21 -0.05,0.11 -0.04,0.11 -0.05,0.1 -0.05,0.11 c -0.6,1.22 -1.46,1.87 -1.56,1.87 -0.06,0 -0.1,-0.04 -0.1,-0.1 0,-0.03 0,-0.05 0.19,-0.23 0.98,-0.99 1.55,-2.57 1.55,-4.64 0,-1.7 -0.37,-3.45 -1.61,-4.7 -0.13,-0.12 -0.13,-0.14 -0.13,-0.17 0,-0.06 0.04,-0.1 0.1,-0.1 0.1,0 1,0.68 1.59,1.94 0.51,1.09 0.63,2.19 0.63,3.03 z" /></g>  <flowRoot
     xml:space="preserve"
     id="flowRoot4345"
     style="font-style:normal;font-weight:normal;font-size:40px;line-height:125%;font-family:sans-serif;letter-spacing:0px;word-spacing:0px;fill:#000000;fill-opacity:1;stroke:none;stroke-width:1px;stroke-linecap:butt;stroke-linejoin:miter;stroke-opacity:1"
     transform="matrix(0.80000008,0,0,0.8,-330.48028,-113.78315)"><flowRegion
       id="flowRegion4347"
       style="stroke-linecap:butt;stroke-linejoin:round"><rect
         id="rect4349"
         width="1164.8123"
         height="205.32285"
         x="122.40401"
         y="593.52179"
         style="stroke-linecap:butt;stroke-linejoin:round" /></flowRegion><flowPara
       id="flowPara4351"
       style="font-style:normal;font-variant:normal;font-weight:500;font-stretch:normal;font-size:22.5px;font-family:'CMU Serif';-inkscape-font-specification:'CMU Serif Medium';text-align:center;text-anchor:middle;stroke-linecap:butt;stroke-linejoin:round">(a) volumetric strain energy</flowPara></flowRoot>  <flowRoot
     xml:space="preserve"
     id="flowRoot4345-3"
     style="font-style:normal;font-weight:normal;font-size:40px;line-height:125%;font-family:sans-serif;letter-spacing:0px;word-spacing:0px;fill:#000000;fill-opacity:1;stroke:none;stroke-width:1px;stroke-linecap:butt;stroke-linejoin:miter;stroke-opacity:1"
     transform="matrix(0.80000008,0,0,0.8,268.61065,-113.78315)"><flowRegion
       id="flowRegion4347-0"
       style="stroke-linecap:butt;stroke-linejoin:round"><rect
         id="rect4349-9"
         width="1164.8123"
         height="205.32285"
         x="122.40401"
         y="593.52179"
         style="stroke-linecap:butt;stroke-linejoin:round" /></flowRegion><flowPara
       id="flowPara4351-5"
       style="font-style:normal;font-variant:normal;font-weight:500;font-stretch:normal;font-size:22.5px;font-family:'CMU Serif';-inkscape-font-specification:'CMU Serif Medium';text-align:center;text-anchor:middle;stroke-linecap:butt;stroke-linejoin:round">(b) deviatoric strain energy</flowPara></flowRoot>  <g
     id="content"
     transform="matrix(2,0,0,-2,-224.72052,1444.9093)"
     xml:space="preserve"
     stroke="black"
     stroke-linecap="butt"
     stroke-linejoin="miter"
     stroke-miterlimit="10.433"
     stroke-dasharray="none"
     stroke-dashoffset="0"
     stroke-opacity="1"
     fill="none"
     fill-rule="evenodd"
     fill-opacity="1"
     font-style="normal"
     font-variant="normal"
     font-weight="normal"
     font-stretch="normal"
     font-size-adjust="none"
     letter-spacing="normal"
     word-spacing="normal"
     text-anchor="start"
     ns0:text="\\begin{equation*}\nV ( \\varepsilon_\\mathrm{d} )\n\\end{equation*}"
     ns0:preamble="/data/settings/inkscape/textext_preamble.tex"
     style="font-style:normal;font-variant:normal;font-weight:normal;font-stretch:normal;letter-spacing:normal;word-spacing:normal;text-anchor:start;fill:none;fill-opacity:1;fill-rule:evenodd;stroke:#000000;stroke-linecap:butt;stroke-linejoin:miter;stroke-miterlimit:10.43299961;stroke-dasharray:none;stroke-dashoffset:0;stroke-opacity:1"><path
       d="M388.89,712.78 L388.94,712.85 L388.98,712.91 L389.03,712.98 L389.07,713.03 L389.12,713.09 L389.16,713.14 L389.2,713.19 L389.25,713.23 L389.29,713.27 L389.33,713.31 L389.37,713.34 L389.41,713.37 L389.45,713.4 L389.49,713.43 L389.53,713.45 L389.57,713.47 L389.61,713.49 L389.65,713.51 L389.69,713.52 L389.73,713.54 L389.77,713.55 L389.81,713.56 L389.84,713.57 L389.88,713.57 L389.92,713.58 L389.96,713.58 L390.03,713.59 L390.1,713.6 L390.17,713.6 C390.29,713.61,390.3,713.78,390.3,713.79 C390.3,713.87,390.25,713.91,390.17,713.91 C389.91,713.91,389.62,713.88,389.35,713.88 C389.02,713.88,388.68,713.91,388.36,713.91 C388.3,713.91,388.17,713.91,388.17,713.72 C388.17,713.61,388.26,713.6,388.33,713.6 C388.6,713.58,388.79,713.48,388.79,713.27 C388.79,713.12,388.64,712.91,388.64,712.9 L385.58,708.05 L384.9,713.3 C384.9,713.47,385.13,713.6,385.59,713.6 C385.73,713.6,385.84,713.6,385.84,713.8 C385.84,713.89,385.76,713.91,385.7,713.91 C385.3,713.91,384.87,713.88,384.46,713.88 C384.28,713.88,384.1,713.89,383.92,713.89 C383.74,713.89,383.55,713.91,383.38,713.91 C383.31,713.91,383.19,713.91,383.19,713.72 C383.19,713.6,383.28,713.6,383.44,713.6 C383.99,713.6,384.01,713.51,384.04,713.26 L384.82,707.14 C384.85,706.94,384.89,706.91,385.02,706.91 C385.18,706.91,385.22,706.96,385.3,707.09 Z "
       stroke-width="0"
       fill="black"
       id="path4286" /><path
       d="M393.95,704.74 L393.95,704.75 L393.95,704.75 L393.95,704.75 L393.95,704.76 L393.95,704.76 L393.95,704.76 L393.95,704.77 L393.95,704.77 L393.95,704.77 L393.95,704.78 L393.94,704.78 L393.94,704.79 L393.94,704.79 L393.93,704.8 L393.93,704.8 L393.92,704.81 L393.92,704.82 L393.91,704.82 L393.91,704.83 L393.91,704.83 L393.9,704.84 L393.9,704.84 L393.9,704.84 L393.89,704.85 L393.89,704.85 L393.88,704.86 L393.88,704.86 L393.87,704.87 L393.87,704.87 L393.86,704.88 L393.86,704.88 L393.85,704.89 L393.85,704.9 L393.84,704.9 L393.83,704.91 L393.83,704.92 L393.82,704.92 L393.81,704.93 L393.81,704.94 L393.8,704.94 L393.79,704.95 L393.79,704.96 C392.54,706.21,392.22,708.09,392.22,709.61 C392.22,711.34,392.6,713.07,393.83,714.31 C393.95,714.43,393.95,714.45,393.95,714.48 C393.95,714.55,393.92,714.58,393.86,714.58 C393.76,714.58,392.86,713.9,392.27,712.64 C391.76,711.55,391.64,710.44,391.64,709.61 C391.64,708.83,391.75,707.63,392.3,706.51 C392.9,705.29,393.76,704.64,393.86,704.64 C393.92,704.64,393.95,704.67,393.95,704.74 Z "
       stroke-width="0"
       fill="black"
       id="path4288" /><path
       d="M395.93,709.38 L395.96,709.37 L396,709.36 L396.03,709.34 L396.06,709.33 L396.09,709.32 L396.11,709.32 L396.14,709.31 L396.17,709.3 L396.2,709.29 L396.23,709.29 L396.29,709.27 L396.34,709.27 L396.4,709.26 L396.45,709.25 L396.5,709.25 L396.55,709.25 L396.6,709.24 L396.65,709.24 L396.7,709.24 L396.75,709.24 L396.79,709.24 V709.46 C396.57,709.46,396.45,709.46,396.26,709.51 H396.26 C396.49,709.59,396.7,709.6,396.87,709.6 C397.12,709.6,397.16,709.59,397.34,709.54 C397.19,709.47,397.17,709.46,396.79,709.46 V709.24 C397.05,709.24,397.6,709.24,397.6,709.55 C397.6,709.79,397.25,709.82,396.87,709.82 C396.66,709.82,396.31,709.8,395.94,709.63 C395.71,709.75,395.55,709.94,395.55,710.2 C395.55,710.81,396.52,711.17,397.42,711.17 C397.58,711.17,397.94,711.17,398.34,710.89 C398.45,710.81,398.47,710.79,398.54,710.79 C398.67,710.79,398.81,710.92,398.81,711.06 C398.81,711.25,398.2,711.62,397.52,711.62 C396.37,711.62,395.3,710.96,395.3,710.2 C395.3,709.78,395.65,709.53,395.7,709.5 C395.11,709.17,394.79,708.61,394.79,708.16 C394.79,707.51,395.36,706.91,396.41,706.91 C397.73,706.91,398.29,707.78,398.29,707.93 C398.29,707.99,398.24,708.03,398.18,708.03 C398.13,708.03,398.1,707.99,398.08,707.96 C397.94,707.73,397.7,707.36,396.5,707.36 C395.89,707.36,395.05,707.51,395.05,708.22 C395.05,708.55,395.33,709.08,395.93,709.38 Z "
       stroke-width="0"
       fill="black"
       id="path4290" /><path
       d="M401.66,710.38 V710.13 C402.13,710.13,402.19,710.08,402.19,709.74 V708.3 C401.93,708.55,401.59,708.7,401.21,708.7 L401.24,708.5 C401.58,708.5,401.88,708.35,402.08,708.1 C402.16,707.99,402.16,707.98,402.16,707.85 V706.36 C401.98,706.03,401.62,705.76,401.17,705.76 C400.77,705.76,400.5,705.99,400.36,706.19 C400.22,706.4,400.13,706.67,400.13,707.12 C400.13,707.28,400.13,707.8,400.42,708.13 C400.7,708.44,401.04,708.5,401.24,708.5 L401.21,708.7 C400.28,708.7,399.5,708,399.5,707.13 C399.5,706.26,400.24,705.56,401.12,705.56 C401.7,705.56,402.04,705.87,402.16,705.99 V705.56 L403.24,705.63 V705.88 C402.77,705.88,402.71,705.93,402.71,706.27 V710.46 Z "
       stroke-width="0"
       fill="black"
       id="path4292" /><path
       d="M406.95,709.61 L406.95,709.68 L406.95,709.76 L406.95,709.84 L406.95,709.92 L406.94,710.09 L406.93,710.26 L406.91,710.44 L406.89,710.63 L406.86,710.83 L406.83,711.03 L406.79,711.23 L406.75,711.44 L406.69,711.65 L406.63,711.86 L406.56,712.07 L406.48,712.28 L406.44,712.39 L406.39,712.5 L406.35,712.6 L406.3,712.71 C405.7,713.93,404.84,714.58,404.74,714.58 C404.68,714.58,404.64,714.54,404.64,714.48 C404.64,714.45,404.64,714.43,404.83,714.25 C405.81,713.26,406.38,711.68,406.38,709.61 C406.38,707.91,406.01,706.16,404.77,704.91 C404.64,704.79,404.64,704.77,404.64,704.74 C404.64,704.68,404.68,704.64,404.74,704.64 C404.84,704.64,405.74,705.32,406.33,706.58 C406.83,707.67,406.95,708.77,406.95,709.61 Z "
       stroke-width="0"
       fill="black"
       id="path4294" /></g>  <g
     style="font-style:normal;font-variant:normal;font-weight:normal;font-stretch:normal;letter-spacing:normal;word-spacing:normal;text-anchor:start;fill:none;fill-opacity:1;fill-rule:evenodd;stroke:#000000;stroke-linecap:butt;stroke-linejoin:miter;stroke-miterlimit:10.43299961;stroke-dasharray:none;stroke-dashoffset:0;stroke-opacity:1"
     ns0:preamble="/data/settings/inkscape/textext_preamble.tex"
     ns0:text="\\begin{equation*}\n\\varepsilon_\\mathrm{d}\n\\end{equation*}"
     text-anchor="start"
     word-spacing="normal"
     letter-spacing="normal"
     font-size-adjust="none"
     font-stretch="normal"
     font-weight="normal"
     font-variant="normal"
     font-style="normal"
     fill-opacity="1"
     fill-rule="evenodd"
     fill="none"
     stroke-opacity="1"
     stroke-dashoffset="0"
     stroke-dasharray="none"
     stroke-miterlimit="10.433"
     stroke-linejoin="miter"
     stroke-linecap="butt"
     stroke="black"
     xml:space="preserve"
     transform="matrix(2,0,0,-2,252.37779,1768.0808)"
     id="g4428"><path
       id="path4430"
       fill="black"
       stroke-width="0"
       d="M391.92,709.38 L391.95,709.37 L391.98,709.36 L392.01,709.34 L392.04,709.33 L392.07,709.32 L392.1,709.32 L392.13,709.31 L392.16,709.3 L392.19,709.29 L392.22,709.29 L392.27,709.27 L392.33,709.27 L392.38,709.26 L392.44,709.25 L392.49,709.25 L392.54,709.25 L392.59,709.24 L392.64,709.24 L392.69,709.24 L392.73,709.24 L392.78,709.24 V709.46 C392.56,709.46,392.44,709.46,392.25,709.51 H392.25 C392.48,709.59,392.69,709.6,392.86,709.6 C393.11,709.6,393.15,709.59,393.33,709.54 C393.18,709.47,393.16,709.46,392.78,709.46 V709.24 C393.04,709.24,393.59,709.24,393.59,709.55 C393.59,709.79,393.24,709.82,392.86,709.82 C392.65,709.82,392.3,709.8,391.93,709.63 C391.7,709.75,391.53,709.94,391.53,710.2 C391.53,710.81,392.51,711.17,393.41,711.17 C393.57,711.17,393.93,711.17,394.33,710.89 C394.43,710.81,394.45,710.79,394.52,710.79 C394.65,710.79,394.79,710.92,394.79,711.06 C394.79,711.25,394.19,711.62,393.51,711.62 C392.36,711.62,391.28,710.96,391.28,710.2 C391.28,709.78,391.64,709.53,391.68,709.5 C391.09,709.17,390.77,708.61,390.77,708.16 C390.77,707.51,391.34,706.91,392.4,706.91 C393.72,706.91,394.27,707.78,394.27,707.93 C394.27,707.99,394.23,708.03,394.17,708.03 C394.12,708.03,394.09,707.99,394.07,707.96 C393.93,707.73,393.69,707.36,392.49,707.36 C391.88,707.36,391.04,707.51,391.04,708.22 C391.04,708.55,391.31,709.08,391.92,709.38 Z " /><path
       id="path4432"
       fill="black"
       stroke-width="0"
       d="M397.65,710.38 V710.13 C398.12,710.13,398.17,710.08,398.17,709.74 V708.3 C397.92,708.55,397.58,708.7,397.2,708.7 L397.23,708.5 C397.57,708.5,397.87,708.35,398.06,708.1 C398.15,707.99,398.15,707.98,398.15,707.85 V706.36 C397.96,706.03,397.61,705.76,397.15,705.76 C396.76,705.76,396.48,705.99,396.34,706.19 C396.2,706.4,396.12,706.67,396.12,707.12 C396.12,707.28,396.12,707.8,396.41,708.13 C396.68,708.44,397.03,708.5,397.23,708.5 L397.2,708.7 C396.27,708.7,395.48,708,395.48,707.13 C395.48,706.26,396.22,705.56,397.11,705.56 C397.68,705.56,398.03,705.87,398.15,705.99 V705.56 L399.22,705.63 V705.88 C398.76,705.88,398.7,705.93,398.7,706.27 V710.46 Z " /></g></svg>
